<?xml version="1.0" encoding="utf-8"?>
<!-- Generator: Adobe Illustrator 19.2.1, SVG Export Plug-In . SVG Version: 6.00 Build 0)  -->
<svg version="1.1" id="Layer_1" xmlns="http://www.w3.org/2000/svg" xmlns:xlink="http://www.w3.org/1999/xlink" x="0px" y="0px"
	 viewBox="0 0 100 96" style="enable-background:new 0 0 100 96;" xml:space="preserve">
<path d="M81.8,77.5l0.1,0.2l0,0l0,0v0c0,0,0.1-0.1,0.1-0.1l0.1-0.1l0.1,0l0.1,0l0-0.1l-0.1-0.1l-0.1,0l-0.2-0.2L81.8,77l-0.2-0.1
	L81.5,77l0,0.1l0,0.1l0,0.3l0.1,0l0.1-0.1L81.8,77.5z M78,76.5L78,76.5l0.1,0.2l0.1,0l0.2,0l0.1-0.1l0.2-0.3l0-0.2l-0.2-0.1l-0.2,0
	l-0.1,0l-0.1,0l0,0.1L78,76.5L78,76.5L78,76.5z M77.6,95.4L77.6,95.4l-0.1-0.1h-0.1l-0.3,0.2L77,95.6l-0.1,0l-0.1,0l-0.1,0l-0.1,0.2
	l0.4-0.1l0.2-0.1l0.1-0.1l0.1-0.1l0-0.1l0.1,0.1l0,0v0l0,0L77.6,95.4l-0.1,0.1l0.1,0l0.1,0L77.6,95.4L77.6,95.4z M72.4,95.7
	L72.4,95.7h0.1l0.1-0.1l-0.1,0L72.4,95.7z M82.9,93.5l-0.1,0l-0.1,0.1l0,0.1l0,0.1l0.1,0.1l0.1,0.1l0-0.1L83,93.7L82.9,93.5z
	 M72.5,95.1L72.4,95l-0.1,0l0,0l0.1,0l0.1,0l0.1,0.1l0.1,0.1l0.1,0.2l0,0.1l0-0.1l0-0.2L72.5,95.1z M80.1,93.8L80.1,93.8L80.1,93.8
	l-0.1,0l0-0.1h-0.1L79.8,94l0.1,0l0.1,0l0,0.1L80,94.2v0.1l0.2,0l0.1,0.1l0,0.1l-0.1,0.2h-0.1l-0.1-0.2L80,94.4l-0.4-0.1l0.1,0.1
	l0.1,0.1l0.2,0.1l-0.1,0.1l0,0l0,0.1l-0.1,0.1L79.4,95l-0.1-0.1l-0.2,0.1l-0.3,0.2v0.1l0.9-0.3l0.4-0.2l0.3-0.2v-0.1l-0.4-0.5
	L80.1,93.8z M81.7,94.2L81.7,94.2l0.1,0.1l0.1-0.1L81.7,94.2L81.7,94.2z M80.2,76.3l-0.1-0.1l-0.2,0l0,0.1l0,0.1l0.1,0.1l0.1,0
	l0,0.1l0,0.2l0,0.1l0.1-0.2l0-0.1l0-0.1L80.2,76.3L80.2,76.3L80.2,76.3L80.2,76.3z M82.2,93.2l-0.4-0.3l-0.1,0l0,0l0-0.1l0.9,1.3
	l0,0.4l0.3-0.2l-0.2-0.6L82.2,93.2z M78.6,95l-0.4,0.1l-0.2,0L78,95h-0.1l-0.1,0.1l0,0.1l0,0.1l0.1,0.1v0.1l-0.1,0.1l-0.1,0.1l1-0.3
	L78.6,95L78.6,95z M33.4,20.4L33.4,20.4l0-0.2l0,0l-0.2,0L33.1,20L32.8,20l-0.2,0.2l-0.2,0l-0.5-0.1l0.1,0.1l0.3,0.1l0.1,0.1
	l0.1,0.1l0.1,0.1l0.1,0.1l0.1,0.1l0.3,0.1h0.2l0.1-0.1l0-0.1l0.1-0.1L33.4,20.4z M39.9,18.1l-0.3,0.2l-0.5,0.3L39,18.7l0.7-0.2
	l0.3-0.2l0.1-0.3l-0.1,0L39.9,18.1z M60.4,28.2L60.4,28.2l-0.2-0.2l-0.1,0.1l0,0.2l0.1,0.1l0.2-0.1l0.1,0L60.4,28.2L60.4,28.2z
	 M38.2,19.3L38,19.4l-0.1,0l0,0.1l-0.1,0.1l-0.1,0l-0.1,0l0,0.1l0,0.1l0,0.1l-2.8,1.4l-0.6,0.1l-0.3,0L33.5,21l-0.2,0l0.3,0.2
	l0.3,0.1l0.8,0l0.3-0.1l0.8-0.5l0.3-0.2l1.3-0.6L38.2,19.3l0.2-0.1l0-0.1l0.1-0.1l0.1,0v-0.1L38.5,19L38.2,19.3z M73.1,68.1l-0.3,0
	L72.4,68l-0.3-0.1l-0.2-0.2l-0.2-0.2l-0.1-0.3l0-0.2l0-0.1l-0.1-0.1l-0.1-0.1l0.1,0.5l0.1,0.5l0.1,0.2l0.1,0.2l0.1,0.1l0.8,0.5
	l0.2,0l0.2-0.1l0.3-0.3l0.2-0.1l-0.5-0.3L73.1,68.1z M12.7,9.1l-0.5,0.1l-0.1-0.1l-0.3,0.1l-1.4,0.2l-0.6,0l-0.2,0L9.3,9.6L9.2,9.6
	L8.9,9.7L8,9.7L7.2,10l-1.5,0.3l-1.1,0l-0.2,0.1l0.7,0.1L14,9.3l0.1,0.1l0.1,0l0.1,0l0.1-0.1l-1.3-0.2L12.7,9.1z M72.5,64.8
	l-0.3-0.3l-0.3-0.1h-0.2l0.2,0.4l0.2,0.5l0.2,0.4l-0.1,0.4l0.2,0.3l0.2,0.7l0.2,0.3l0.2,0.1l0-0.3l-0.1-0.8l-0.1-0.2L72.6,66
	l-0.2-0.3l0.1-0.5L72.5,64.8z M70.9,64.9l0-0.4l-0.1-0.1l0,0l-0.1,0l0.2,0.7l0.1,0.3l0.2,0.3l-0.1-0.3L70.9,64.9z M65.8,54.5
	l-0.3-0.6l-0.1-0.1l-0.2-0.1l0.1,0.2l0.2,0.3l0.1,0.1l0.1,0.2l0.6,0.7l0.2,0.2l-0.1-0.2L65.8,54.5z M70.7,63.6l-0.1-0.3L70.5,63
	l-0.1-0.1l0,0L70.3,63l0.1,0.3l0,0.7l0.1,0.3l0.1-0.3L70.7,63.6z M66,51.9L66,51.9l-0.1,0.2l0.2-0.1L66,51.9L66,51.9z M85.7,84.3
	L85.7,84.3l0.1,0.3l0.1,0.1l0.1,0.1l0-0.1l0-0.1l0-0.1l0-0.1l-0.1,0l-0.1,0L85.7,84.3L85.7,84.3L85.7,84.3z M65.2,34.7L65.2,34.7
	L65.2,34.7l0.1-0.1l0-0.2l-0.1,0l-0.1,0l-0.1,0l-0.1,0l0,0l0,0l0,0l-0.1,0l0,0l0,0l0.2,0.1L65.2,34.7L65.2,34.7z M86.4,85.2l0.1,0
	l0.1-0.1l0-0.1l0.1-0.2l0-0.2l-0.1,0l-0.2,0l-0.2,0l-0.1,0.1l0,0.2L86.4,85.2z M66.2,52L66.2,52L66.2,52L66.2,52z M100,64.3
	l-0.1-0.5l-0.2-0.2v-0.1l0.2-0.2v-0.4l-0.3-1.4l-0.1-0.2l-0.1-0.1l-0.3-0.1l-0.2-0.1V61l0.2-0.1l0.2,0l0.1,0l0.1-0.2l0-0.2l-0.2-0.5
	l-0.3-0.8l-0.3-0.6l0-0.2l-0.1-0.2l-0.4-0.2L98,57.7l-0.5-0.6l-0.1,0l-0.3,0.1l-0.1,0l-0.2-0.1l-0.1,0l-0.3-0.4l-0.1-0.1l0.2,0
	l0.1,0.1l0.1,0.1l0.1,0.1l0.3,0.2l0.5,0.1l0.1,0.1l0.1,0.3l0-0.2l-1.9-4.7l-0.5-2.2l-4.2-9.4l-0.1-0.4l-0.4-0.8l-0.2-0.9l-0.1-0.3
	L90,37.2L90,36.6l-0.1-0.3l-0.4-0.8l0.1-0.1v-0.1l-0.1-0.4l-0.2-1.4l0.3,0.1l0.4,0.4l0.6,0.2l0,0.3l-0.1,0.3l-0.1,0.2L90.2,35
	l-0.1,0.2l-0.1,0.3v0.3l0.1,0.2l0.2,0.2l0.2,0.1l0.8,0.1l0.1,0l0.2,0l0-0.1l0-0.2l0-0.1l0.1,0l0.1,0l0.1,0.1l0,0l0.3,0l0.2,0.1
	l0.1,0.1l0.1,0.2l0.1,0.6l0,0.6l-0.4,1.9l0,2.6l0.1,0.6l0.4,1.2l0.8,1.4l0.1,0.5l0.4,0.5l0.1,0.1l0,0.1l0.3,0.6l0-0.6L93.4,45
	l-0.3-0.6l0-0.2l-0.2-0.4l-0.3-1.5l-0.1-0.8l0-0.3L92.5,41l0.1-0.2l0-1.5l0-0.1l0.1,0l0.1-0.1l0.1-0.1l0-0.1l0.1,0l0.2-0.3l0.2-0.3
	L93.3,38L93,37l-0.8-1.4l-0.7-1l-0.8-1.5l-1.8-2.8L88.8,30l-0.1-0.3l-0.2-0.2l-0.2-0.2l0.1-0.3l-1.2-2.3l-0.9-2.4l-0.8-1.8l-0.6-1.1
	l-0.1-0.3L84.8,21l0-0.3l-0.1-0.3l-0.4-0.7l-0.2-0.9L84,18.7l-0.1-0.2l-0.1-0.7l-0.1-0.2l0.1-0.1l-0.1-0.1l-0.1-0.1l0-0.1l0.1-0.1
	l-0.1,0L83.5,17l-0.1,0l0.1-0.5L83,14.7l-0.1-1.1l-0.1-0.3l-0.3-0.5l-0.1-0.3l-0.4-1.7l0-0.6l0.1-0.7l0-0.1L82,9.3l-0.1-0.1l0-0.1
	l0-0.5l0-0.2l-0.1-0.1l-0.1-0.1l-0.1,0l-0.1-0.1L81.5,8l-0.1-0.2l-0.1-0.1L81,7.4l0-0.1l-0.2-0.1L80.7,7l0-0.3l0-0.3l0-0.3l0-0.1
	l0.1-0.1l0.1,0L81,6.1l0.1,0.2l0,0.2l0,0.4l0,0.3l0.1,0.2l0.2,0.2l0-0.4l0-1.3l0.1-0.4l0-0.3l-0.1-0.1l0,0l0-0.1l0-0.1l-0.1,0
	l-0.1,0l-0.2,0.1l-0.1,0l-0.3-0.1l0-0.1l-0.1,0l-0.2-0.1l-0.4,0.1l-0.1,0l-0.5-0.1l-0.1-0.1l-0.2-0.1l-0.1,0l-0.1,0l-0.1,0l-0.6-0.2
	L77.7,4l-0.1-0.1l-0.1-0.1l-0.1-0.1l-0.2-0.1l-0.1,0l-0.1,0l-1.2-0.5l-0.2-0.1l-0.1-0.1l-0.2-0.1l-0.1,0l-0.1,0l-0.1,0l-0.2,0
	l-0.1,0l-0.1,0L74.5,3l0,0.1l0,0.1v0l0,0.1l0,0.1l0,0.1l-0.1,0l-0.1,0l-0.1,0l-0.1,0l-0.1,0l0,0.1l0,0.2l0,0.1l0,0.1L73.6,4l0,0.1
	l0,0.1l0,0.1l0,0.1l0,0.4l0,0.1l0,0.1l-0.1,0.3l0,0.1l0,0.2l0,0.1l0,0.1l0.1,0.1l0.3,0.4l0.1,0.1l0,0.1l0,0.2l0,0.2l-0.2,1l-0.3,0.9
	l0,0.2l0,0.1l0,0.4l0,0.1l0,0.1l-0.1,0.1l-0.1,0L73,9.9h-0.1l-0.1,0l-0.2-0.1l-0.1,0l-0.6,0.1l-0.1,0l-0.1,0l-0.1,0l-0.1-0.1
	l-0.1-0.1L71.3,9l0-0.1l0-0.1l0-0.1l0-0.2l0.1-0.2l0-0.1l0-0.1l0-0.1l0-0.1l-0.1-0.1l-0.1-0.1l-0.3-0.4l-0.1-0.1l0-0.1l0-0.1l0-0.1
	L70.9,7l0-0.1v0l0,0C59.4,6,47.9,5.2,36.3,4.4l-0.1,0l-0.6-0.6l-0.2-1l0-0.6l-0.1-0.4l-0.2-0.4L35,1.3l-0.1-0.5l-0.1-0.2l-0.1-0.1
	l-0.2-0.2l-0.1-0.1l0-0.2l0,0c-11.4,0-22.7,0-34.1,0L0.3,0.4l0,0.7l0,0.1L0.1,1.8L0,1.9L0,2l0,0.1l0,0.1l0.1,0.1l0.1,0.2l0.2,0.2
	L1,3.4l0.1,0.1L1.3,4l0.2,0.3l0.2,0.1L2.8,5l0.1,0.1l0,0.1l0,0.2l0,0.2L2.8,6.1L2.7,6.5L2.5,6.9L2.5,7l0,0.1l0,0.2l0.2,0.7l0,0
	L3,8.2L3,8.3l0.1,0l0.3,0l0.1,0l0.1,0.1l0.1,0.2l0,0.2L3.6,9L3.3,9L3,9.2L2.6,9.7v0.1l0.2,0.1l0,0.2l-0.1,0.2l-0.2,0.1l-0.2,0
	l-0.3,0l-0.2,0.1l0.2,0.1l0.2,0.1l-0.5,0.1l-0.1,0l-0.1,0.1l-0.1,0.1L1.4,11l-0.2,0.1v0.1l0.1-0.1L1.7,11l0.1,0l0.2-0.1l1.9-0.4
	l0.3-0.1l0-0.3l0.1,0L4.6,10L4.8,10l0-0.1l0-0.4l0-0.1L5,9.1l0.3,0L5.6,9l0.1-0.4l0.1,0l0,0l0,0h0.1l0.3-0.6L6.2,8L6.2,7.7L5.9,7.3
	L5.9,7.1L5.8,6.7l0-0.2l0.2,0l0.2,0.1l0.1,0.2l0.1,0.1l0.2,0l0,0.1l0,0.2l0,0.1l0.3,0l0.1,0.2l0,0.3l0.1,0.2L7,8.1l0,0.2L7,8.6
	l0.2,0l0.1-0.2l0.1-0.5l0.2-0.4l0.3-0.8L8,6.6l0-0.2L7.9,6.2l0.3,0.2l0.1,0.3l0.1,0.2l0.2-0.2l0.1,0.1l0,0l0,0.1L8.3,7.1L8.1,7.2
	L8.1,7.5l0,0.1l0.1,0.1l0.1,0l0.1,0l0.1,0.1l0.2,0.3l0.1,0.1l0.2,0l0.3,0.1l0.3,0.1l0.2,0.2l0,0.2L9.5,8.7L9.2,8.5L9,8.4L8.2,9.1
	l-0.2,0l-0.7,0L6.4,9.4L5.9,9.6l-0.1,0L5.8,9.7L5.7,9.9l0.7-0.1l1.3-0.4l2-0.3l0.7,0l0.4-0.1L11.1,9l0.3,0.1L12.5,9l1,0.1l0.2-0.1
	l0-0.2l0-0.1l0.3,0l0.2-0.1l0.2-0.2l0.1-0.1l0.2,0l0.2-0.1l0.2-0.1L15,8.1l0-0.1L15,7.6l0-0.2l0.1,0.2l0.1,0.1l0.1,0l0.1-0.2
	l0.1-0.1l0.1,0l0.3,0l-0.3,0.4l-0.1,0.2l0.2,0.2l0.2,0l0.2-0.1l0.2-0.1L16.6,8l0.3,0l0.6-0.1l0.3,0l0.6,0.1l0.3,0l0.2-0.2l0.2,0.4
	L19,8.3l0.2,0L19.6,8l0,0.2l-0.1,0.1l-0.1,0.1l0.1,0.2l0.4,0.4l0,0.1L20,9.3l0,0.2l-0.1,0.1l-0.2-0.2l-0.1-0.1l-0.6-0.2l-0.4-0.3
	l-0.2-0.1l-0.2,0L18,8.8L18,9L18.2,9l0.2,0l0.1,0l0,0.1l-0.1,0.1l-0.1,0.1l-0.6-0.1l-0.1-0.1l-0.1-0.2l-0.1-0.2l0,0l0,0l-0.1,0
	l-0.1,0.2l-0.1,0.2L17,9.3l-0.2,0.1L16,9.2l-1.1,0l-0.2-0.1l0,0l0,0l0,0L15,9.4l1.6,0.2l2.3,0.6l1.7,0.5l1.5,0.8l1.1,0.6l1.6,1.2
	l0.3,0.1L25,13.2l-0.1-0.1l0.1,0l0.2,0.2l0.1-0.2l-0.2-0.2l-0.2-0.2l-0.1-0.2l0.2-0.3L24.8,12l-0.1-0.2l-0.1-0.1l-0.2-0.1l-0.3,0
	l-0.2,0.1l-0.1,0l-0.2-0.2l-0.1-0.3l0.1-0.2l0.2-0.1l0.2-0.1l0.4,0l0.2-0.1l0.1-0.3l0.2,0.3l0.2,0.2l0.1,0.2l0,0.3l0.2,0l0.1-0.1
	l0.1-0.2l0.2-0.1l0.2-0.1l0.2-0.1l0.2,0l0.1,0.2l0.2-0.2l0.3-0.6l0.1-0.1l0.1,0.1l0.1,0.2l0.2,0.4L27,11l-0.5,0.6l-0.3-0.1l-0.2,0
	l-0.6,0.7l-0.3,0.2l0.1,0.1l0.1,0.1l0.1,0.1l0.5,0.2l0.1,0.1l0.1,0.2l0.2-0.1l0.3,0.1l0.3,0.2l0.2,0.2l0-0.1l0-0.1l0-0.1l0-0.1
	l0.2,0.1l0.2-0.1l0.2-0.1l0.2,0v0.1l-0.2,0.2l0,0.2l0.1,0.1l0.2-0.1l0.1,0.2l0,0.5l0.1,0.2l0.2,0.1l0.1-0.1l0.2-0.3l0.1-0.1l0,0
	l0,0.1l0.1,0.1l0.1,0l0.2,0l0.1,0l0.1,0.2l-0.2,0.1l-0.2,0.1L29,14.9l-0.2,0.1l-0.5-0.2l-0.5-0.3l-0.2-0.3L27.4,14l-0.9-0.3l0-0.3
	l-0.8-0.1l-0.1,0l0.1,0.2l0.7,0.7l0.2,0.1l1.7,1.4l-0.3,0l-0.3-0.2l-0.3-0.3l-0.2-0.2h-0.1l0,0.1l0,0.1l0,0.1l0.1,0.1l0.4,0.3
	l1.5,0.7l0.2,0.2l0.2,0.2l0.2,0.3l0.1,0.3l0.1,0.2l0.4,0.5l0.1,0.3l-0.1,1.1l0,0.2l0.1,0.1l-0.1,0.1L30.4,20l-0.1,0.1l-0.2,0L30,20
	l-0.3-0.5l-0.1-0.3l-0.1-0.3l0-0.3l0-1l0-0.1l-0.2,0.3l0,0.8l0.2,1.3l0.1,0.2l0.2,0.2l0.3,0.1l0.5-0.2l0.3,0l0.3,0l0.3,0l1.5-0.5
	l0.5,0l1,0.1l0.2-0.1l0.3-0.4l0.3,0l0.2-0.4l0.2-0.1l0.2-0.1l0.2-0.1l0.2-0.1l0.2,0.1l-0.4,0.6L36,19.2l0.1,0.3l0.1,0l0.2-0.2
	l0.2-0.1l0.3-0.1l0.2-0.1l0.3-0.2l0.2-0.1l0.4,0l0.2-0.1l0.7-0.6l0.4-0.3l0.6-0.2l0.5-0.4l0.7-0.4l0.1,0.2l0.2,0l0.2-0.1l0.3,0
	l0.5,0.1l0.5,0.2v0.1l-0.1,0.1l-0.1,0.2l0.4-0.2l0.2-0.4l-0.1-0.3L42.8,16L42,15.9l-0.1-0.1l0-0.2l0-0.1l-0.2,0l0.2-0.2l0.2,0.1
	l0.3,0.2l0.4,0.1l0.3,0.1l0.2,0l0-0.1L43,15.4l-0.1-0.1l0,0.1l-0.1,0.1l0,0.1l-0.1-0.1l0-0.1l0-0.1l0,0l0,0l0-0.1l0.1-0.1l0,0l0,0
	l0.1,0l0-0.2l0.1-0.1l0.5-0.3l0.2,0l0.4,0l0-0.1l0.1-0.2l0.1-0.2l0.1-0.1h0.1l0.1,0l0,0l0,0h0.3l0.1,0l0.1-0.1l0.1,0l0.1,0l0,0l0,0
	l0,0l0.1,0.1l0.1,0.2l0.1,0.1l0.1-0.1l0.3-0.2l0.9-0.1l0.4-0.2l0.3,0l1,0.8l1.2,0.8l0.6,0.3l0.3-0.1l0.3,0.3L51,16l0.2,0.1l0.2,0.1
	l0.6,0.4l0.1,0.1l0.1,0.2l0.5,0.5l0.1,0.3l0.1,0.1l0.1,0.1l0.1,0.1l0.1,0.2l0.1,0.4l0,0.2l0.1,0.3l0.2,0.3l0.2,0.3l0.2,0.2l0.4,0.2
	l0.1,0.1l0.2,0.2l0.1,0.1l0.3,0.1l0.3,0l0.2,0.1l0.2,0.2l0.1,0.3l0,0.3l-0.1,0.3l-0.1,0.2l0.1,0.1l0.1,0.2l0,0.2l-0.1,0.1l0.3,0.2
	l0.2,0.1l0.1,0l0.7,0.8l0.4,0.3l0.3-0.1l0.3,0.2l0.2,0.2l0.4,0.5l0.2,0.4l0,0l0,0.3l0,0.1l0,0.1L59,26l0.2,0.1l0.2,0.1l0.2,0
	l0.2,0.1l0.1,0.2l0.1,0.2l0.1,0.1L60,27l0,0.1l0.1,0.1l0.2,0l0.1,0.1l0,0.2l0.1,0.2l0.2,0.1l0.2,0l0.1,0l0.2-0.1l0.2,0l0.4,0l0.2,0
	l0.2,0.1l0.3,0.1l0.3,0l0.3-0.2l0.1,0.1l0.1,0.1l0.1,0.1l0.1-0.1l0.3-0.1v0.3l0,0.2l0.1,0.2l0.2,0.1l-0.3,0.2l0.1,0.3l0.5,0.4l0,0.1
	V30l0,0.1l-0.1,0.2l0.1,0.1l0.2,0.1l0.2,0l-0.1,0.3l0.1,0.3l0.6,0.7l0.1,0.1l0.1,0l0.2,0l0.1,0l0.1,0.2l0,0.2L65.7,33l0,0.2l0.1,0.4
	l-0.3-0.4l-0.2-0.1l-0.2,0.2l0,0.1l0.3,0.3l0.1,0.2l0,0.1l0.1,0l0.1,0l0,0.1v0.5l0,0.2l0,0.1l0,0.1l-0.1,0.1l0,0.1l0,0.1l0,0.1
	l0.1,0.1L65.6,36l0,1.3l-0.1,0.4l0,0.2l0,0.8l-0.3,0.5l0,0.1v0.1l-0.2,0.2l-0.5,1.3l0.1,0l0,0l0.1,0l0,0.2l-0.1,0.2l-0.3,0.4
	l-0.1,0.4l-0.1,0.2l-0.2,0.2l-0.1-0.1l-0.1,0.2l0,0.3l0,0.2l0.1,0.4l0.1,0.2l0.1,0.2l-0.1,0.1l0,0.2l0,0.4l-0.3,1.4L63.1,47L63,46.8
	l0-0.3l0.1-0.3l0.1-0.2l-0.1,0.1L63,46.4l-0.1,0.3l0,0.3l0,0.3l0.1,0.4l0,0.2l0.2,0.3L64,49l0.2,0.5l0,0.2l0.1,0.3l0.1,0.3l0.2,0
	l0-0.2l-0.1-0.3l-0.2-0.5l-0.2-0.3l-0.8-0.9L63.3,48l0-0.2l0.3,0.2l0.5,0.4l0.2,0.3l0.2,0.4l0.2,0.1l0.3,0l0,0.1l0,0.3l0,0.1
	l0.1,0.1l0.1,0h0.2l0.2-0.1l0.1-0.2l0-0.3L65.8,49l0.2-0.5l0-0.1l0-0.1l0.2-0.2l0.1-0.1v-0.2l-0.1-0.3l0-0.2l0.4-0.3l0.1-0.1
	l-0.6,0.1l-0.5-0.2l-0.5-0.3l-0.5-0.2l0.2-0.2l0.6-0.2l0.2-0.2h-0.5l-0.1,0l0-0.1l0.1-0.1l0-0.1l0.1-0.2l0-0.1l0-0.1L65,44.9l0-0.1
	l0.5,0.5l0-0.2l0,0h0.1l0.1,0.2l0.2,0.1l0.4,0.2v0.1L66,45.8v0.1l0.4,0l0.3,0.1l0.2,0.2l0.1,0.4L67,47.3l0,0.4l0.2,0.3l0.1,0l0.5,0
	l0.1-0.2l0-0.2l-0.1-0.2l0-0.5l0.1-0.2l0.1-0.2l0.3-0.2l0.2,0l0.2,0.2l0.1,0.6l0.3,0.6l0,0.3l-0.1,0.2l-0.4,0.5L68.3,49L68,49.2
	l-0.1,0.1l-0.2,0.4l-0.1,0.1l-0.1,0l-0.1,0.1l0,0.2l0,0.1l-0.4,0.3l-0.2,0.3l-0.1,0.3l-0.1,0.3l-0.3,0.2l0.1,0.1l0,0.1L66.2,52
	l0.2-0.1l0.2,0L66.5,52l-0.2,0.1l-0.4,0.1l-0.2,0.1l0.2,0l0.2,0.1l0.1,0.1l0.1,0.1l-0.3,0l-0.3-0.2l-0.3-0.1l-0.2,0.3l0.1,0.1
	l0.1,0.1l0.1,0l0.1-0.1h0.1l0,0.2l0,0.1l-0.1,0.1l-0.1,0.1l-0.1-0.1L64.9,53l-0.1-0.1l-0.1-0.1l-0.2-0.5h-0.1l0,0.2l0.3,0.7l0.1,0.2
	l0.2,0.1l0.5,0.1l0.5,0.4l0.2,0.1l0.2,0.2l0.1,0.7l0.3,0.6l0,0.4h-0.1l0-0.1l0,0l0,0l-0.1-0.1V56l0.2,0.3l0.2,0.3l0.2,0.3h0.1v-0.2
	l0.1,0.1l0.1,0.2l0,0.2v0.2l-0.1-0.1l-0.1-0.1l-0.1-0.2l0.1,0.3l0.3,0.6l0.1,0.5l1.2,2.4l0.1,0.3l0.1,0.1l0.1,0.1l0.2,0.1l-0.1-0.2
	l-0.2-0.3l0-0.2l0.4,0.4l0.4,1.3l0.4,0.3l0.1,0l0.1,0l0.2,0.1l0.1,0.1l0.1,0.1l0.1,0l0.1,0l0,0l0,0l0,0l0.1,0l0.1,0.1l0,0l0.1-0.1
	l0.1-0.1l0.1-0.1l0-0.1l0.1,0.2l0,0.4l0.1-0.1l0.1-0.2l0-0.2L72,62.1l-0.2-0.5l-0.1-0.1l-0.1-0.1l-0.2-0.5l-0.1-0.2l-0.1,0.1
	l-0.1-0.1l-0.4-0.5L70.5,60l0-0.1l0.3,0.1l0.1,0.2l0.3,0.4l0.2,0.1l0.2-0.1l0.1,0l-0.1,0.3l0.2,0.3l0.1,0.1l0.1,0l0.1-0.1l0.2,0
	l0.2-0.1l0.1-0.2l0.3,0.1l0.2,0l0.2-0.1l0.5-0.1l0.3-0.3l0.2-0.1l-0.2,0.4l-0.1,0.1L74,60.8l-0.3,0.1l-0.7,0.4l-0.3,0.2l0,0.2
	l0.3,0.2l0.2,0.1l0.1,0.1l0,0.4l0,0.3L73,64.5l0,0.3l0.1,0.2l0.2,0.5l0.1,0.3l0,0.3l-0.1,0.2l0,0.2l0.1,0.3l0.2,0.2l0.2,0l0.2-0.1
	l0.3-0.1V67l0.1-0.1l0.3-0.1l0.1-0.1l0.1-0.1l0.4-1.1l0.1-0.2l0.4-0.5l0.3-0.2l0.2-0.1l0.2,0l0.3-0.2l0.2-0.1l-0.1,0.2l-0.1,0.1
	l-0.1,0.1l-0.1,0.1l-0.1-0.1l-0.1,0.1l-0.1,0.1l0,0.1l-0.6,0.6l-0.2,0.2l0.1,0.4l-0.2,0.4l-0.4,0.3l-0.4,0.2l-0.1,0.1l-0.1,0.1
	l-0.1,0l-0.1,0l-0.1-0.2l-0.1,0L74,67.2l0,0.2l0,0.2l0,0.1l0.1-0.1l0.1,0.1l0,0l0.2-0.1l0.7,0.4h0.3l0.1,0l0.1,0.1l0.1,0l0.1,0
	l0.1-0.1l-0.1-0.4l0-0.2l0.1,0.2l0.3,0.5l0.1,0.2l0.1,0.3l0,0.9h-0.1v-0.1H76l0.1,0.2l0.4,0.7l0,0.1v0.1l-0.1,0.5l0.1,1.1l0.2,1h0.1
	l0-0.2l0-0.2l0-0.1l0.1-0.1l0.2,1.1l0.2,0.4l0.4,0.3l-0.1,0.1l0,0.2l0.1,0.2l0.1,0.1l0.1,0l0.3,0l0.2,0l0,0.2l-0.1,0.2l-0.1,0.2
	l-0.1,0.1L78,75.5l-0.1-0.1l-0.2-0.1l-0.2,0.1l0.1,0.4l0.1,0.1l0.1,0.2l0,0l0.1,0H78l0-0.1l0.1-0.1l0,0l0-0.1l0-0.1l0.1,0.1l0.1,0.1
	l0.2,0l0.2,0l0.1-0.1l0.1-0.2l0.1-0.1l0.1,0.2l0.1,0.1l0.1,0.1l0.1,0l0,0.1l0,0l0,0l-0.1,0.1l0.1,0l0.2-0.1l0.1,0l0.1,0l0.2,0.1
	l0.3,0.1l0.2,0.1l0.1,0.1l0.2-0.2l0.1,0.1l0.2,0.2l0.1,0.1l0.2,0.1l0.4,0.1l0.2,0.1l0.3,0.2l0.3,0.3l0.2,0.4l0.1,0.1l-0.3,0.3
	l-0.1,0.2l0.2,0.1l0.1,0.1l0.2,0.4L83,79l0.1,0l0.4,0l0,0.3l0.1,0.2l0.1,0.1l0,0.2l0.3,0.5l0.1,0.7l0.1,0.1l0.2,0.1l0.3-0.1l0.1,0.1
	l0,0.1l-0.1,0.1l-0.1,0.1l-0.2,0.2l0.1,0.3l0.4,0.5l0.2,0.6l0,0.1l0.1,0.3l0,0.2l0.1,0.2l0.6,0.5l0.5,0.1l0.1,0l0.2,0.1l0.5,0.1
	l0.2,0.1l0.7,0.8l0.1,0.3L88.2,86L88,86.2l-0.3,0.1l-0.3,0l-0.2-0.1v-0.1l0.1,0l0.1-0.1l0.1,0v-0.1l-1-0.4l-0.2-0.1l0,0L86,84.8
	l-0.1-0.1l-0.1-0.1l-0.2-0.1l-0.2,0l0.1-0.2l-0.2,0.2l-0.2,0.5l-0.1,0.6l0,0.5l0.2,0.4l0.2,0.5l0.6,0.6l0.2,0l0.6-0.1l0.5-0.1
	l0.4-0.1l0.5,0l0.2,0l0.3-0.3l0.1,0l0.4-0.2l0.2,0.2l0.4,0.1l0,0.1V87l0.1,0l0.1,0l0,0l0-0.1l0.1,0.1l0.1,0l0.1,0l0.1,0l0-0.1l0,0
	l0,0l0-0.1l0.1,0.2l0.2,0.1l0.2,0l0.2,0l0.3-0.3l0.2-0.1l0.2,0.1h0.1l0.1-0.1l0-0.1l0-0.1l0-0.1l0.1,0l0.5-0.1l0,0.1l0,0l0,0l0,0
	l0.2,0.1l0.1-0.2l0.1-0.3l0.1-0.2l0.2-0.1l0.5,0l0.2,0l0.1,0.1l0,0l0,0.1l-0.1,0l-0.1,0l0,0.1l0,0.1l0.1,0l0.1,0.1l0.1,0.1l0,0.1
	l0.2-0.1l0.3,0l0.2,0.2l0,0.3h0.1l0-0.3l-0.2-0.2l-0.2-0.1l-0.3,0l0.2-0.2l0.3-0.1l0.2,0l0,0.2l0.2,0.1l0.3,0.4l0.2,0.2l0-0.1
	L95,86.2L94.8,86l0-0.3l0-0.2l0.2-0.3l0-0.1l0-0.1l0.1-0.1l0.6-0.7l0.5-0.4l0-0.2l-0.1-0.1L96,83.5l-0.1-0.1l0.1-0.3l0.1-0.2
	l-0.1-0.1L96,82.8l-0.1-0.1l0-0.3l0-0.3l0.1-0.3l0.2-0.3l0.1-0.2l0-0.7l0-0.3l0.4-0.4l0.3-0.6l0-0.4l0-0.1l0.1-0.1l0.1,0h0.1
	l0.1-0.1l0.2-0.3l0-0.6l0.2-0.4l0.1-0.5l0.5-0.6l0.1,0l0,0.2l0,0.4l-0.1,0.7V78h0.1l0.2-4.3l-0.2-0.3v-0.1l0.2-0.2l0.1-0.4l0.3-2.2
	l0-0.3l0.1-0.2l0-0.2l0-0.5l0-0.2l0.1-0.4l0.1-2l0.2,0l0.1-0.4L100,64.3z M98.2,78.7L98.2,78.7l-0.1,0.1L98,78.9V79l0.1,0l0,0l0,0
	l0.1,0L98,79.2l0,0.2l0.1,0.1l0.2,0l0.1-0.1l0-0.8h-0.1L98.2,78.7z M92,42.3l0,0.2l0,0.2h0.1l0-0.1L91.9,42L92,42.3z M92.4,36.9
	l-0.2-0.4l-0.2,0l-0.2,0.1l-0.3,0.2l-0.3,0.2L91.1,37l-0.1,0.2l-0.3,0l-0.1,0.4l0,0.5l0.1,0.2l0.1,1.2l0.1,0.3l0.2,0.3l0.5,1.4
	l0.2,0.4l0-0.2c-0.1-0.2-0.1-0.4-0.2-0.5l0-0.2l0-0.1l0.1-0.3l0.1-1.8l0.1-0.6l0.4-0.9L92.4,36.9z M65,33.6L65,33.6l-0.1,0.1l0,0.1
	l0.1,0l0,0.1L64.9,34l0,0l0.1,0h0.1l0.1-0.1l0-0.2l-0.1-0.1L65,33.6z M94.7,47.8l0.4,1.1l0.2,0.4l0,0.1l0,0.2l0.1,0.3l0.1,0.4
	l0.1,0.2l0.1,0.2l0.1,0.2l0.5,2.2l0.2,0.5l0,0.2l0,0.1l0.2,0.1l0,0.1l0.1,0.2l0.8,1.8l0.1,0.6l0.3,0.3l0.2,0.4l-0.1-0.3l-2.2-6
	l0-0.2l0-0.3l-0.1-0.3l-0.2-0.6l-0.5-0.9l-0.3-0.6l-0.1-0.6l0-0.1l0,0l0,0v-0.1l-0.1,0l0,0l0,0.1L94.7,47.8z M80.9,93.8L80.9,93.8
	l-0.1-0.1l-0.1,0l-0.1,0l-0.1,0l0,0l-0.1,0.2l0,0.2l0.1,0.1l0,0l0,0l0.1,0l0.1,0l0.1,0l0.1,0l0.1,0.1l0.1,0.1l0-0.1l0-0.3L80.9,93.8
	z M85.7,93.3l-0.3,0.1l0.4,0l0.1,0.1l0.1,0.2l0.1-0.2l0.1-0.1l0.1-0.1l0.3-0.1l0,0l0-0.1l-0.3,0L85.7,93.3z M83.8,94l-0.2,0.2l0,0
	l0.1-0.1L83.8,94L83.8,94L83.8,94z M97.8,82.1L97.8,82.1L97.6,83l-0.1,0.2l-0.2,0.1l0,0l0,0l0,0l0.2-0.2l0.2-0.3l0.1-0.3l0.1-0.3
	l0-0.1l0-0.1l0-0.1L97.8,82.1z M81.4,93.8L81.4,93.8l-0.1,0L81.4,93.8L81.4,93.8L81.2,94l0,0.1l0.1,0.1l0,0.1l0.1,0l0-0.1l0-0.2
	L81.4,93.8z M81.3,77.3L81.3,77.3v-0.2l0,0l0-0.1l-0.1-0.2L81,76.6l-0.2,0l-0.1,0l-0.1,0l-0.2,0.1l0,0.2l0.1,0.1l0,0v0.1l0,0l0-0.1
	l0-0.1l0-0.1l0.1-0.1l0.1,0l0,0l0.2,0L81,77l0,0.1l0.1,0.1L81.3,77.3L81.3,77.3z M86.8,93.3l1-0.4l0.2-0.2l0.2,0l0.1,0l0.1-0.1v-0.1
	l-0.4,0.1L86.8,93.3z M92.2,90.2l-0.4,0.5l0.1-0.1l0.3-0.3l0.1-0.2l0,0L92.2,90.2L92.2,90.2z M96.6,84.3l-0.4,0.5l-0.2,0.1L95.7,85
	l-0.1,0.1l0,0.2l0.1,0.1l0.1,0.1l0,0.2l-0.1,0.3l-0.5,0.5L95,87.1L94.4,87l-0.1,0.3l0.2-0.1l0.1,0.1l0.1,0.1l-0.1,0.2l-0.1-0.1h0
	l0,0.1l0.1,0.1l-0.1,0.2l-0.1,0.1l-0.3,0l0,0.2L94,88.3l-0.3,0.3l-0.2,0.3L93.4,89l-0.2,0l-0.1,0.1L93,89.6l-0.1,0.1l-0.2,0
	l-0.1,0.1l0.1,0.2l0.3,0l0.3-0.3l0.5-0.6l0.4-0.4l0.1-0.1l0.1-0.3l0.1-0.2l0.1,0l0.1-0.1l1.1-1.1v-0.1l-0.1-0.2l0.2-0.4l0.4-0.6
	l0.4-0.5l0.1-0.1l0-0.1l0.1-0.2l0.1-0.2l0.1-0.1l0.1,0l0,0l0-0.1l0-0.1l-0.3-0.1L96.6,84.3z M90.9,91.2l-0.1,0.1l-0.1,0.1l0,0.1
	l0.1,0l0.2-0.1l0.1-0.1l0.2-0.2l0-0.1L90.9,91.2z M89.9,91.8L89.9,91.8l0-0.1l0-0.1l-0.6,0.4l-0.1,0.2l0.5,0l0.2-0.1l0.1-0.1
	l0.1-0.1l0,0v-0.1L89.9,91.8L89.9,91.8z"/>
</svg>
