<?xml version="1.0" encoding="utf-8"?>
<!-- Generator: Adobe Illustrator 19.1.0, SVG Export Plug-In . SVG Version: 6.00 Build 0)  -->
<svg version="1.1" id="Layer_1" xmlns="http://www.w3.org/2000/svg" xmlns:xlink="http://www.w3.org/1999/xlink" x="0px" y="0px"
	 viewBox="-49 51 512 512" style="enable-background:new -49 51 512 512;" xml:space="preserve">
<style type="text/css">
	.st0{fill:#FAFAFA;}
</style>
<path class="st0" d="M316.3,285.1h-24.7c1.8,7,2.9,14.3,2.9,21.9c0,48.3-39.2,87.5-87.5,87.5s-87.5-39.2-87.5-87.5
	c0-7.6,1.1-14.9,2.9-21.9H97.7v120.3c0,6,4.9,10.9,10.9,10.9h196.8c6,0,10.9-4.9,10.9-10.9V285.1L316.3,285.1z M316.3,208.6
	c0-6-4.9-10.9-10.9-10.9h-32.8c-6,0-10.9,4.9-10.9,10.9v32.8c0,6,4.9,10.9,10.9,10.9h32.8c6,0,10.9-4.9,10.9-10.9V208.6z M207,252.3
	c-30.2,0-54.7,24.5-54.7,54.7s24.5,54.7,54.7,54.7s54.7-24.5,54.7-54.7S237.2,252.3,207,252.3 M316.3,449.1H97.7
	c-18.1,0-32.8-14.7-32.8-32.8V197.7c0-18.1,14.7-32.8,32.8-32.8h218.7c18.1,0,32.8,14.7,32.8,32.8v218.7
	C349.1,434.4,334.5,449.1,316.3,449.1"/>
</svg>
