<?xml version="1.0" encoding="UTF-8"?>
<svg width="1401px" height="1065px" viewBox="0 0 1401 1065" version="1.1" xmlns="http://www.w3.org/2000/svg" xmlns:xlink="http://www.w3.org/1999/xlink">
    <defs>
        <polygon id="path-1" points="0.06 0.5 216.804 0.5 216.804 317.33 0.06 317.33"></polygon>
        <polygon id="path-3" points="0.06 0.45 333.458 0.45 333.458 133.984 0.06 133.984"></polygon>
        <polygon id="path-5" points="0.06 0.486 350.213 0.486 350.213 200.645 0.06 200.645"></polygon>
        <polygon id="path-7" points="0.06 0.99 166.729 0.99 166.729 50.98 0.06 50.98"></polygon>
        <polygon id="path-9" points="0.06 0.633 700.258 0.633 700.258 84.08 0.06 84.08"></polygon>
        <polygon id="path-11" points="0.06 0.816 116.759 0.816 116.759 384.41 0.06 384.41"></polygon>
        <polygon id="path-13" points="0.06 0.513 200.092 0.513 200.092 200.583 0.06 200.583"></polygon>
        <polygon id="path-15" points="0.06 0.45 108.444 0.45 108.444 83.888 0.06 83.888"></polygon>
        <polygon id="path-17" points="0.06 0.99 700.215 0.99 700.215 51 0.06 51"></polygon>
        <polygon id="path-19" points="0.06 0.5 216.804 0.5 216.804 317.329 0.06 317.329"></polygon>
        <polygon id="path-21" points="0.06 0.45 333.458 0.45 333.458 133.984 0.06 133.984"></polygon>
        <polygon id="path-23" points="0.06 0.486 350.213 0.486 350.213 200.645 0.06 200.645"></polygon>
        <polygon id="path-25" points="0.06 0.987 166.729 0.987 166.729 50.979 0.06 50.979"></polygon>
        <polygon id="path-27" points="0.06 0.633 700.258 0.633 700.258 84.082 0.06 84.082"></polygon>
        <polygon id="path-29" points="0.06 0.816 116.759 0.816 116.759 384.413 0.06 384.413"></polygon>
        <polygon id="path-31" points="0.06 0.513 200.092 0.513 200.092 200.583 0.06 200.583"></polygon>
        <polygon id="path-33" points="0.06 0.45 108.444 0.45 108.444 83.888 0.06 83.888"></polygon>
        <polygon id="path-35" points="0.06 0.987 700.215 0.987 700.215 50.999 0.06 50.999"></polygon>
    </defs>
    <g id="Pattern44" stroke="none" stroke-width="1" fill="none" fill-rule="evenodd">
        <polyline id="Fill-1" fill="#5D2D1D" points="1366.66 1065 1254.13 952.472 1204.1 1002.5 1183.28 981.687 1183.28 1023.32 1141.6 1065 1366.66 1065"></polyline>
        <polyline id="Fill-2" fill="#5D2D1D" points="833.194 964.975 733.169 1065 933.219 1065 833.194 964.975"></polyline>
        <polyline id="Fill-3" fill="#5D2D1D" points="916.59 981.687 883.269 1015.01 916.59 1048.33 916.59 981.687"></polyline>
        <polyline id="Fill-4" fill="#5D2D1D" points="699.828 731.5 766.553 798.225 699.828 864.95 699.828 731.5"></polyline>
        <polyline id="Fill-5" fill="#DF4E55" points="699.828 798.267 766.553 864.992 699.828 931.717 699.828 798.267"></polyline>
        <polyline id="Fill-6" fill="#F2E5CA" points="916.548 914.92 849.865 848.237 849.823 848.195 849.823 848.153 849.802 848.174 783.14 781.512 783.14 781.47 716.414 848.195 783.098 914.878 783.14 914.92 783.14 914.962 783.161 914.941 849.823 981.603 849.823 981.645 916.548 914.92"></polyline>
        <polyline id="Fill-7" fill="#5D2D1D" points="833.194 898.375 833.194 931.717 849.865 915.046 849.886 915.067 849.865 915.088 916.59 981.813 916.59 848.363 883.206 881.747 883.206 881.705 883.248 881.663 883.206 881.621 883.206 814.937 849.865 848.279 833.194 831.608 833.194 864.95"></polyline>
        <polyline id="Fill-8" fill="#DF4E55" points="1266.63 598.259 1199.91 531.534 1199.91 573.211 1158.23 531.534 1158.23 573.169 1116.04 531.569 1116.04 531.543 1116.01 531.543 1116 531.534 1116 531.543 1066.58 531.507 1116 581.546 1116 664.984 1158.23 623.349 1158.23 664.984 1199.91 623.307 1199.91 664.984 1266.63 598.259"></polyline>
        <polyline id="Fill-9" fill="#F2E5CA" points="899.835 1064.96 983.231 981.562 1066.63 1064.96 899.835 1064.96"></polyline>
        <polyline id="Fill-10" fill="#F2E5CA" points="1033.16 1064.96 1116.56 981.562 1199.95 1064.96 1033.16 1064.96"></polyline>
        <polyline id="Fill-11" fill="#DF4E55" points="983.231 531.534 983.231 531.576 941.596 573.211 941.596 531.534 899.877 573.253 899.877 531.534 833.152 598.259 899.877 664.984 899.877 623.265 941.596 664.984 941.596 623.307 983.273 664.984 983.273 581.504 1033.24 531.534 983.231 531.534"></polyline>
        <polyline id="Fill-12" fill="#00B1B5" points="766.553 664.9 699.828 598.175 766.553 531.45 766.553 664.9"></polyline>
        <polyline id="Fill-13" fill="#5D2D1D" points="1400.04 865.034 1333.32 798.309 1400.04 731.583 1400.04 865.034"></polyline>
        <polyline id="Fill-14" fill="#DF4E55" points="1400.04 931.717 1333.32 864.992 1400.04 798.267 1400.04 931.717"></polyline>
        <polyline id="Fill-15" fill="#00B1B5" points="1333.32 531.534 1400.04 598.259 1333.32 664.984 1333.32 531.534"></polyline>
        <polyline id="Fill-16" fill="#F2E5CA" points="1066.67 531.492 1049.96 548.205 1033.24 531.492 1066.67 531.492"></polyline>
        <polyline id="Fill-17" fill="#5D2D1D" points="1266.63 598.301 1199.91 665.026 1133.18 598.301 1266.63 598.301"></polyline>
        <polyline id="Fill-18" fill="#5D2D1D" points="966.644 598.301 899.919 665.026 833.194 598.301 966.644 598.301"></polyline>
        <polyline id="Fill-19" fill="#F2E5CA" points="966.56 698.41 899.835 631.685 899.835 631.643 833.11 698.368 899.835 765.093 899.835 765.135 966.56 698.41"></polyline>
        <polyline id="Fill-20" fill="#F2E5CA" points="916.548 781.68 849.823 714.955 849.823 714.913 783.098 781.638 849.823 848.363 849.823 848.405 916.548 781.68"></polyline>
        <polyline id="Fill-21" fill="#F2E5CA" points="1316.65 781.68 1249.92 714.955 1249.92 714.913 1183.2 781.638 1249.92 848.363 1249.92 848.405 1316.65 781.68"></polyline>
        <polyline id="Fill-22" fill="#F2E5CA" points="1266.72 698.41 1199.99 631.685 1199.99 631.643 1133.27 698.368 1199.99 765.093 1199.99 765.135 1266.72 698.41"></polyline>
        <polyline id="Fill-23" fill="#F2E5CA" points="1249.92 848.153 1183.2 914.878 1249.92 981.603 1249.92 981.645 1316.65 914.92 1249.92 848.195 1249.92 848.153"></polyline>
        <polyline id="Fill-24" fill="#F2E5CA" points="1383.41 848.237 1316.69 781.512 1316.69 781.47 1249.96 848.195 1316.69 914.92 1316.69 914.962 1383.41 848.237"></polyline>
        <polyline id="Fill-25" fill="#F2E5CA" points="1116.6 848.363 1049.87 781.638 1049.87 781.596 983.147 848.321 1049.87 915.046 1049.87 915.088 1116.6 848.363"></polyline>
        <polyline id="Fill-26" fill="#F2E5CA" points="1033.29 664.984 966.56 598.259 1033.29 531.534 1033.29 664.984"></polyline>
        <polyline id="Fill-27" fill="#F2E5CA" points="1066.59 531.618 1133.31 598.343 1066.59 665.068 1066.59 531.618"></polyline>
        <polyline id="Fill-28" fill="#F2E5CA" points="1049.91 914.962 1116.64 981.687 1049.91 1048.41 1049.91 914.962"></polyline>
        <polyline id="Fill-29" fill="#F2E5CA" points="1049.91 1048.33 983.189 981.604 1049.91 914.878 1049.91 1048.33"></polyline>
        <polyline id="Fill-30" fill="#F2E5CA" points="1050 781.486 983.273 848.211 916.548 781.486 1050 781.486"></polyline>
        <polyline id="Fill-31" fill="#F2E5CA" points="749.861 981.645 699.828 931.612 749.861 881.579 749.861 981.645"></polyline>
        <polyline id="Fill-32" fill="#F2E5CA" points="783.203 1015.03 733.169 964.996 783.203 914.962 783.203 1015.03"></polyline>
        <polyline id="Fill-33" fill="#F2E5CA" points="1349.99 881.621 1400 931.633 1349.99 981.645 1349.99 881.621"></polyline>
        <polyline id="Fill-34" fill="#F2E5CA" points="1316.65 914.962 1366.66 964.975 1316.65 1014.99 1316.65 914.962"></polyline>
        <polyline id="Fill-35" fill="#5D2D1D" points="983.273 715.039 966.602 731.709 949.932 715.039 883.206 781.764 1050 781.764 983.273 715.039"></polyline>
        <polyline id="Fill-36" fill="#F2E5CA" points="1183.28 781.486 1116.56 848.211 1049.83 781.486 1183.28 781.486"></polyline>
        <polyline id="Fill-37" fill="#5D2D1D" points="1149.98 715.039 1133.27 731.751 1116.56 715.039 1049.83 781.764 1216.71 781.764 1149.98 715.039"></polyline>
        <polyline id="Fill-38" fill="#DF4E55" points="1183.28 915.172 1116.56 848.447 1183.28 781.722 1183.28 915.172"></polyline>
        <polyline id="Fill-39" fill="#DF4E55" points="916.548 781.722 983.273 848.447 916.548 915.172 916.548 781.722"></polyline>
        <polyline id="Fill-40" fill="#5D2D1D" points="1266.68 864.908 1266.63 864.866 1266.63 831.608 1250.01 848.237 1216.62 814.854 1216.62 881.621 1216.58 881.663 1183.28 848.363 1183.28 981.813 1250.01 915.088 1266.63 931.717 1266.63 864.95 1266.68 864.908"></polyline>
        <polyline id="Fill-41" fill="#5D2D1D" points="949.89 881.705 883.164 814.979 949.89 748.254 949.89 881.705"></polyline>
        <polyline id="Fill-42" fill="#00B1B5" points="1199.95 665.068 1133.23 598.343 1133.23 598.301 1066.5 665.026 1133.23 731.751 1133.23 731.793 1199.95 665.068"></polyline>
        <polyline id="Fill-43" fill="#5D2D1D" points="1149.9 748.254 1216.62 814.979 1149.9 881.705 1149.9 748.254"></polyline>
        <polyline id="Fill-44" fill="#DF4E55" points="883.206 748.38 949.932 815.105 883.206 881.83 883.206 748.38"></polyline>
        <polyline id="Fill-45" fill="#DF4E55" points="833.152 765.051 883.206 815.105 833.152 865.16 833.152 765.051"></polyline>
        <polyline id="Fill-46" fill="#DF4E55" points="791.475 773.386 833.194 815.105 791.475 856.824 791.475 773.386"></polyline>
        <polyline id="Fill-47" fill="#F2E5CA" points="1233.31 1064.98 1283.31 1014.99 1333.3 1064.98 1233.31 1064.98"></polyline>
        <polyline id="Fill-48" fill="#F2E5CA" points="766.532 1064.98 816.523 1014.99 866.515 1064.98 766.532 1064.98"></polyline>
        <polyline id="Fill-49" fill="#00B1B5" points="783.143 1015.01 741.486 1056.66 699.828 1015.01 783.143 1015.01"></polyline>
        <polyline id="Fill-50" fill="#00B1B5" points="1399.96 1015.01 1358.31 1056.66 1316.65 1015.01 1399.96 1015.01"></polyline>
        <polyline id="Fill-51" fill="#5D2D1D" points="1316.67 1014.99 1400 1014.99 1358.33 973.321 1316.67 1014.99"></polyline>
        <polyline id="Fill-52" fill="#5D2D1D" points="1358.39 973.289 1400.04 1014.95 1400.04 931.633 1358.39 973.289"></polyline>
        <polyline id="Fill-53" fill="#5D2D1D" points="783.182 1014.99 699.828 931.633 699.828 1015.08 699.923 1014.99 783.182 1014.99"></polyline>
        <polyline id="Fill-54" fill="#DF4E55" points="1350.03 948.388 1316.65 915.004 1350.03 881.621 1350.03 948.388"></polyline>
        <polyline id="Fill-55" fill="#DF4E55" points="1316.69 1048.41 1283.31 1015.03 1316.69 981.645 1316.69 1048.41"></polyline>
        <polyline id="Fill-56" fill="#DF4E55" points="749.84 881.621 783.224 915.004 749.84 948.388 749.84 881.621"></polyline>
        <polyline id="Fill-57" fill="#DF4E55" points="783.161 981.645 816.544 1015.03 783.161 1048.41 783.161 981.645"></polyline>
        <polyline id="Fill-58" fill="#DF4E55" points="766.511 798.267 699.786 731.542 766.511 664.816 766.511 798.267"></polyline>
        <polyline id="Fill-59" fill="#5D2D1D" points="1333.36 798.267 1266.63 731.542 1333.36 664.816 1333.36 798.267"></polyline>
        <polyline id="Fill-60" fill="#DF4E55" points="1333.28 664.816 1400 731.542 1333.28 798.267 1333.28 664.816"></polyline>
        <polyline id="Fill-61" fill="#5D2D1D" points="766.469 664.816 833.194 731.542 766.469 798.267 766.469 664.816"></polyline>
        <polyline id="Fill-62" fill="#DF4E55" points="916.548 914.962 983.231 981.645 916.548 1048.33 916.548 914.962"></polyline>
        <polyline id="Fill-63" fill="#DF4E55" points="1183.28 1048.33 1116.6 981.645 1183.28 914.962 1183.28 1048.33"></polyline>
        <polyline id="Fill-64" fill="#DF4E55" points="833.236 598.259 766.511 664.984 833.236 731.709 899.961 664.984 833.236 598.259"></polyline>
        <polyline id="Fill-65" fill="#F2E5CA" points="899.877 531.513 766.427 531.513 766.511 531.597 766.511 664.984 833.236 598.259 833.184 598.207 899.877 531.513"></polyline>
        <polyline id="Fill-66" fill="#F2E5CA" points="699.828 598.133 766.553 664.858 699.828 731.583 699.828 598.133"></polyline>
        <polyline id="Fill-67" fill="#F2E5CA" points="1333.4 531.513 1199.95 531.513 1266.65 598.207 1266.59 598.259 1333.32 664.984 1333.32 531.597 1333.4 531.513"></polyline>
        <polyline id="Fill-68" fill="#F2E5CA" points="1400.04 731.583 1333.32 664.858 1400.04 598.133 1400.04 731.583"></polyline>
        <polyline id="Fill-69" fill="#DF4E55" points="1333.36 664.984 1266.63 598.259 1199.91 664.984 1266.63 731.709 1333.36 664.984"></polyline>
        <polyline id="Fill-70" fill="#DF4E55" points="1033.24 531.534 1099.97 598.259 1033.24 664.984 1033.24 531.534"></polyline>
        <polyline id="Fill-71" fill="#DF4E55" points="1066.63 664.984 999.902 598.259 1066.63 531.534 1066.63 664.984"></polyline>
        <polyline id="Fill-72" fill="#DF4E55" points="1033.2 931.549 1099.93 998.274 1033.2 1065 1033.2 931.549"></polyline>
        <polyline id="Fill-73" fill="#DF4E55" points="1066.59 1065 999.86 998.274 1066.59 931.549 1066.59 1065"></polyline>
        <polyline id="Fill-74" fill="#00B1B5" points="1116.6 715.081 1049.87 648.355 1049.87 648.313 983.147 715.039 1049.87 781.764 1049.87 781.806 1116.6 715.081"></polyline>
        <polyline id="Fill-75" fill="#00B1B5" points="1049.91 915.004 983.189 848.279 983.189 848.237 916.464 914.962 983.189 981.687 983.189 981.729 1049.91 915.004"></polyline>
        <polyline id="Fill-76" fill="#00B1B5" points="1183.36 915.004 1116.64 848.279 1116.64 848.237 1049.91 914.962 1116.64 981.687 1116.64 981.729 1183.36 915.004"></polyline>
        <polyline id="Fill-77" fill="#00B1B5" points="1249.92 915.004 1249.92 914.962 1183.2 981.687 1249.92 1048.41 1249.92 1048.45"></polyline>
        <polyline id="Fill-78" fill="#00B1B5" points="849.823 1048.41 849.823 1048.45 916.548 981.729 849.823 915.004 849.823 914.962"></polyline>
        <polyline id="Fill-79" fill="#00B1B5" points="1066.59 598.369 1049.87 581.656 1049.87 581.646 1033.16 598.359 1049.87 615.071 1049.87 615.082 1066.59 598.369"></polyline>
        <polyline id="Fill-80" fill="#00B1B5" points="1066.59 798.403 1049.87 781.69 1049.87 781.68 1033.16 798.393 1049.87 815.105 1049.87 815.116 1066.59 798.403"></polyline>
        <polyline id="Fill-81" fill="#5D2D1D" points="1074.91 856.67 1049.87 831.629 1049.87 831.614 1024.83 856.654 1049.87 881.694 1049.87 881.71 1074.91 856.67"></polyline>
        <polyline id="Fill-82" fill="#00B1B5" points="1033.24 665.068 966.518 598.343 966.518 598.301 899.793 665.026 966.518 731.751 966.518 731.793 1033.24 665.068"></polyline>
        <path d="M1049.91,722.539 C1059.59,722.539 1059.59,707.539 1049.91,707.539 C1040.24,707.539 1040.24,722.539 1049.91,722.539" id="Fill-83" fill="#5D2D1D"></path>
        <path d="M1116.6,822.563 C1126.27,822.563 1126.27,807.563 1116.6,807.563 C1106.92,807.563 1106.92,822.563 1116.6,822.563" id="Fill-84" fill="#00B1B5"></path>
        <path d="M983.231,822.563 C992.904,822.563 992.904,807.563 983.231,807.563 C973.558,807.563 973.558,822.563 983.231,822.563" id="Fill-85" fill="#00B1B5"></path>
        <polyline id="Fill-86" fill="#DF4E55" points="1216.64 881.81 1149.92 815.084 1216.64 748.359 1216.64 881.81"></polyline>
        <polyline id="Fill-87" fill="#DF4E55" points="1266.68 865.139 1216.62 815.084 1266.68 765.03 1266.68 865.139"></polyline>
        <polyline id="Fill-88" fill="#DF4E55" points="1308.31 856.803 1266.59 815.084 1308.31 773.365 1308.31 856.803"></polyline>
        <polyline id="Fill-89" fill="#F2E5CA" points="999.902 915.004 983.189 898.291 983.189 898.281 966.477 914.994 983.189 931.706 983.189 931.717 999.902 915.004"></polyline>
        <polyline id="Fill-90" fill="#F2E5CA" points="1133.27 915.004 1116.56 898.291 1116.56 898.281 1099.84 914.994 1116.56 931.706 1116.56 931.717 1133.27 915.004"></polyline>
        <polyline id="Fill-91" fill="#5D2D1D" points="1066.59 998.369 1049.87 981.656 1049.87 981.645 1033.16 998.358 1049.87 1015.07 1049.87 1015.08 1066.59 998.369"></polyline>
        <polyline id="Fill-92" fill="#DF4E55" points="1283.33 948.325 1249.96 914.962 1249.96 1048.41 1316.67 981.708 1316.69 981.729 1316.69 914.962 1283.33 948.325"></polyline>
        <polyline id="Fill-93" fill="#DF4E55" points="816.523 948.304 783.161 914.941 783.161 981.666 783.14 981.687 849.865 1048.41 849.865 914.962 816.523 948.304"></polyline>
        <polyline id="Fill-94" fill="#DF4E55" points="1366.66 798.267 1299.93 731.542 1366.66 664.816 1366.66 798.267"></polyline>
        <polyline id="Fill-95" fill="#DF4E55" points="733.127 664.816 799.852 731.542 733.127 798.267 733.127 664.816"></polyline>
        <polyline id="Fill-96" fill="#DF4E55" points="766.511 531.45 808.23 573.169 766.511 614.888 766.511 531.45"></polyline>
        <polyline id="Fill-97" fill="#DF4E55" points="699.828 598.869 699.828 532.186 766.511 532.186 699.828 598.869"></polyline>
        <polyline id="Fill-98" fill="#DF4E55" points="1333.32 532.186 1400 532.186 1400 598.869 1333.32 532.186"></polyline>
        <polyline id="Fill-99" fill="#00B1B5" points="1158.27 531.534 1199.95 531.534 1199.95 573.211 1158.27 531.534"></polyline>
        <polyline id="Fill-100" fill="#00B1B5" points="1116.6 531.534 1158.27 531.534 1158.27 573.211 1116.6 531.534"></polyline>
        <polyline id="Fill-101" fill="#00B1B5" points="941.554 573.211 941.554 531.534 983.231 531.534 941.554 573.211"></polyline>
        <polyline id="Fill-102" fill="#00B1B5" points="899.877 573.211 899.877 531.534 941.554 531.534 899.877 573.211"></polyline>
        <polyline id="Fill-103" fill="#00B1B5" points="858.2 573.211 858.2 531.534 899.877 531.534 858.2 573.211"></polyline>
        <polyline id="Fill-104" fill="#00B1B5" points="816.523 531.534 858.2 531.534 858.2 573.211 816.523 531.534"></polyline>
        <polyline id="Fill-105" fill="#00B1B5" points="1241.63 573.211 1241.63 531.534 1283.31 531.534 1241.63 573.211"></polyline>
        <polyline id="Fill-106" fill="#00B1B5" points="1199.95 531.534 1241.63 531.534 1241.63 573.211 1199.95 531.534"></polyline>
        <polyline id="Fill-107" fill="#DF4E55" points="1333.32 614.888 1291.6 573.169 1333.32 531.45 1333.32 614.888"></polyline>
        <polyline id="Fill-108" fill="#DF4E55" points="1400 1014.99 1400 1065 1349.99 1065 1400 1014.99"></polyline>
        <polyline id="Fill-109" fill="#DF4E55" points="749.84 1065 699.828 1065 699.828 1014.99 749.84 1065"></polyline>
        <polyline id="Fill-110" fill="#5D2D1D" points="666.874 1065 554.346 952.472 504.313 1002.5 483.495 981.687 483.495 1023.32 441.818 1065 666.874 1065"></polyline>
        <polyline id="Fill-111" fill="#5D2D1D" points="133.408 964.975 33.383 1065 233.433 1065 133.408 964.975"></polyline>
        <g id="Group-116" transform="translate(0.000000, 731.000000)">
            <mask id="mask-2" fill="white">
                <use xlink:href="#path-1"></use>
            </mask>
            <g id="Clip-113"></g>
            <polyline id="Fill-112" fill="#5D2D1D" mask="url(#mask-2)" points="216.804 250.687 183.484 284.01 216.804 317.33 216.804 250.687"></polyline>
            <polyline id="Fill-114" fill="#5D2D1D" mask="url(#mask-2)" points="0.042 0.5 66.767 67.225 0.042 133.95 0.042 0.5"></polyline>
            <polyline id="Fill-115" fill="#DF4E55" mask="url(#mask-2)" points="0.042 67.267 66.767 133.992 0.042 200.717 0.042 67.267"></polyline>
        </g>
        <polyline id="Fill-117" fill="#F2E5CA" points="216.762 914.92 150.079 848.237 150.037 848.195 150.037 848.153 150.016 848.174 83.354 781.512 83.354 781.47 16.629 848.195 83.312 914.878 83.354 914.92 83.354 914.962 83.375 914.941 150.037 981.603 150.037 981.645 216.762 914.92"></polyline>
        <polyline id="Fill-118" fill="#5D2D1D" points="133.408 898.375 133.408 931.717 150.079 915.046 150.1 915.067 150.079 915.088 216.804 981.813 216.804 848.363 183.421 881.747 183.421 881.705 183.463 881.663 183.421 881.621 183.421 814.937 150.079 848.279 133.408 831.608 133.408 864.95"></polyline>
        <polyline id="Fill-119" fill="#DF4E55" points="566.849 598.259 500.124 531.534 500.124 573.211 458.447 531.534 458.447 573.169 416.25 531.569 416.25 531.543 416.223 531.543 416.214 531.534 416.214 531.543 366.794 531.507 416.214 581.546 416.214 664.984 458.447 623.349 458.447 664.984 500.124 623.307 500.124 664.984 566.849 598.259"></polyline>
        <polyline id="Fill-120" fill="#F2E5CA" points="200.05 1064.96 283.446 981.562 366.841 1064.96 200.05 1064.96"></polyline>
        <polyline id="Fill-121" fill="#F2E5CA" points="333.374 1064.96 416.77 981.562 500.166 1064.96 333.374 1064.96"></polyline>
        <g id="Group-125" transform="translate(0.000000, 531.000000)">
            <mask id="mask-4" fill="white">
                <use xlink:href="#path-3"></use>
            </mask>
            <g id="Clip-123"></g>
            <polyline id="Fill-122" fill="#DF4E55" mask="url(#mask-4)" points="283.445 0.534 283.445 0.576 241.81 42.211 241.81 0.534 200.092 42.253 200.092 0.534 133.366 67.259 200.092 133.984 200.092 92.265 241.81 133.984 241.81 92.307 283.487 133.984 283.487 50.504 333.458 0.534 283.445 0.534"></polyline>
            <polyline id="Fill-124" fill="#00B1B5" mask="url(#mask-4)" points="66.767 133.9 0.042 67.175 66.767 0.45 66.767 133.9"></polyline>
        </g>
        <polyline id="Fill-126" fill="#5D2D1D" points="700.257 865.034 633.532 798.309 700.257 731.583 700.257 865.034"></polyline>
        <polyline id="Fill-127" fill="#DF4E55" points="700.257 931.717 633.532 864.992 700.257 798.267 700.257 931.717"></polyline>
        <polyline id="Fill-128" fill="#00B1B5" points="633.532 531.534 700.257 598.259 633.532 664.984 633.532 531.534"></polyline>
        <polyline id="Fill-129" fill="#F2E5CA" points="366.883 531.492 350.171 548.205 333.458 531.492 366.883 531.492"></polyline>
        <polyline id="Fill-130" fill="#5D2D1D" points="566.849 598.301 500.124 665.026 433.399 598.301 566.849 598.301"></polyline>
        <polyline id="Fill-131" fill="#5D2D1D" points="266.859 598.301 200.133 665.026 133.408 598.301 266.859 598.301"></polyline>
        <polyline id="Fill-132" fill="#F2E5CA" points="266.775 698.41 200.05 631.685 200.05 631.643 133.324 698.368 200.05 765.093 200.05 765.135 266.775 698.41"></polyline>
        <polyline id="Fill-133" fill="#F2E5CA" points="216.762 781.68 150.037 714.955 150.037 714.913 83.312 781.638 150.037 848.363 150.037 848.405 216.762 781.68"></polyline>
        <polyline id="Fill-134" fill="#F2E5CA" points="616.862 781.68 550.136 714.955 550.136 714.913 483.411 781.638 550.136 848.363 550.136 848.405 616.862 781.68"></polyline>
        <polyline id="Fill-135" fill="#F2E5CA" points="566.933 698.41 500.208 631.685 500.208 631.643 433.483 698.368 500.208 765.093 500.208 765.135 566.933 698.41"></polyline>
        <polyline id="Fill-136" fill="#F2E5CA" points="550.136 848.153 483.411 914.878 550.136 981.603 550.136 981.645 616.862 914.92 550.136 848.195 550.136 848.153"></polyline>
        <polyline id="Fill-137" fill="#F2E5CA" points="683.629 848.237 616.904 781.512 616.904 781.47 550.178 848.195 616.904 914.92 616.904 914.962 683.629 848.237"></polyline>
        <polyline id="Fill-138" fill="#F2E5CA" points="416.812 848.363 350.087 781.638 350.087 781.596 283.362 848.321 350.087 915.046 350.087 915.088 416.812 848.363"></polyline>
        <polyline id="Fill-139" fill="#F2E5CA" points="333.5 664.984 266.775 598.259 333.5 531.534 333.5 664.984"></polyline>
        <polyline id="Fill-140" fill="#F2E5CA" points="366.799 531.618 433.525 598.343 366.799 665.068 366.799 531.618"></polyline>
        <polyline id="Fill-141" fill="#F2E5CA" points="350.129 914.962 416.854 981.687 350.129 1048.41 350.129 914.962"></polyline>
        <polyline id="Fill-142" fill="#F2E5CA" points="350.129 1048.33 283.404 981.604 350.129 914.878 350.129 1048.33"></polyline>
        <g id="Group-146" transform="translate(0.000000, 781.000000)">
            <mask id="mask-6" fill="white">
                <use xlink:href="#path-5"></use>
            </mask>
            <g id="Clip-144"></g>
            <polyline id="Fill-143" fill="#F2E5CA" mask="url(#mask-6)" points="350.213 0.486 283.487 67.211 216.762 0.486 350.213 0.486"></polyline>
            <polyline id="Fill-145" fill="#F2E5CA" mask="url(#mask-6)" points="50.075 200.645 0.042 150.612 50.075 100.579 50.075 200.645"></polyline>
        </g>
        <polyline id="Fill-147" fill="#F2E5CA" points="83.417 1015.03 33.383 964.996 83.417 914.962 83.417 1015.03"></polyline>
        <polyline id="Fill-148" fill="#F2E5CA" points="650.203 881.621 700.215 931.633 650.203 981.645 650.203 881.621"></polyline>
        <polyline id="Fill-149" fill="#F2E5CA" points="616.862 914.962 666.874 964.975 616.862 1014.99 616.862 914.962"></polyline>
        <polyline id="Fill-150" fill="#5D2D1D" points="283.487 715.039 266.817 731.709 250.146 715.039 183.421 781.764 350.213 781.764 283.487 715.039"></polyline>
        <polyline id="Fill-151" fill="#F2E5CA" points="483.495 781.486 416.77 848.211 350.045 781.486 483.495 781.486"></polyline>
        <polyline id="Fill-152" fill="#5D2D1D" points="450.195 715.039 433.483 731.751 416.77 715.039 350.045 781.764 516.921 781.764 450.195 715.039"></polyline>
        <polyline id="Fill-153" fill="#DF4E55" points="483.495 915.172 416.77 848.447 483.495 781.722 483.495 915.172"></polyline>
        <polyline id="Fill-154" fill="#DF4E55" points="216.762 781.722 283.487 848.447 216.762 915.172 216.762 781.722"></polyline>
        <polyline id="Fill-155" fill="#5D2D1D" points="566.891 864.908 566.849 864.866 566.849 831.608 550.22 848.237 516.837 814.854 516.837 881.621 516.795 881.663 483.495 848.363 483.495 981.813 550.22 915.088 566.849 931.717 566.849 864.95 566.891 864.908"></polyline>
        <polyline id="Fill-156" fill="#5D2D1D" points="250.104 881.705 183.379 814.979 250.104 748.254 250.104 881.705"></polyline>
        <polyline id="Fill-157" fill="#00B1B5" points="500.166 665.068 433.441 598.343 433.441 598.301 366.716 665.026 433.441 731.751 433.441 731.793 500.166 665.068"></polyline>
        <polyline id="Fill-158" fill="#5D2D1D" points="450.112 748.254 516.837 814.979 450.112 881.705 450.112 748.254"></polyline>
        <polyline id="Fill-159" fill="#DF4E55" points="183.421 748.38 250.146 815.105 183.421 881.83 183.421 748.38"></polyline>
        <polyline id="Fill-160" fill="#DF4E55" points="133.366 765.051 183.421 815.105 133.366 865.16 133.366 765.051"></polyline>
        <polyline id="Fill-161" fill="#DF4E55" points="91.689 773.386 133.408 815.105 91.689 856.824 91.689 773.386"></polyline>
        <polyline id="Fill-162" fill="#F2E5CA" points="533.529 1064.98 583.52 1014.99 633.511 1064.98 533.529 1064.98"></polyline>
        <g id="Group-166" transform="translate(0.000000, 1014.000000)">
            <mask id="mask-8" fill="white">
                <use xlink:href="#path-7"></use>
            </mask>
            <g id="Clip-164"></g>
            <polyline id="Fill-163" fill="#F2E5CA" mask="url(#mask-8)" points="66.746 50.98 116.738 0.99 166.729 50.98 66.746 50.98"></polyline>
            <polyline id="Fill-165" fill="#00B1B5" mask="url(#mask-8)" points="83.358 1.01 41.7 42.66 0.042 1.01 83.358 1.01"></polyline>
        </g>
        <polyline id="Fill-167" fill="#00B1B5" points="700.177 1015.01 658.519 1056.66 616.862 1015.01 700.177 1015.01"></polyline>
        <polyline id="Fill-168" fill="#5D2D1D" points="616.883 1014.99 700.216 1014.99 658.549 973.321 616.883 1014.99"></polyline>
        <g id="Group-172" transform="translate(0.000000, 931.000000)">
            <mask id="mask-10" fill="white">
                <use xlink:href="#path-9"></use>
            </mask>
            <g id="Clip-170"></g>
            <polyline id="Fill-169" fill="#5D2D1D" mask="url(#mask-10)" points="658.601 42.289 700.258 83.95 700.258 0.633 658.601 42.289"></polyline>
            <polyline id="Fill-171" fill="#5D2D1D" mask="url(#mask-10)" points="83.396 83.99 0.042 0.633 0.042 84.08 0.137 83.99 83.396 83.99"></polyline>
        </g>
        <polyline id="Fill-173" fill="#DF4E55" points="650.245 948.388 616.862 915.004 650.245 881.621 650.245 948.388"></polyline>
        <polyline id="Fill-174" fill="#DF4E55" points="616.903 1048.41 583.52 1015.03 616.903 981.645 616.903 1048.41"></polyline>
        <polyline id="Fill-175" fill="#DF4E55" points="50.054 881.621 83.438 915.004 50.054 948.388 50.054 881.621"></polyline>
        <g id="Group-179" transform="translate(0.000000, 664.000000)">
            <mask id="mask-12" fill="white">
                <use xlink:href="#path-11"></use>
            </mask>
            <g id="Clip-177"></g>
            <polyline id="Fill-176" fill="#DF4E55" mask="url(#mask-12)" points="83.375 317.645 116.759 351.03 83.375 384.41 83.375 317.645"></polyline>
            <polyline id="Fill-178" fill="#DF4E55" mask="url(#mask-12)" points="66.725 134.267 0 67.542 66.725 0.816 66.725 134.267"></polyline>
        </g>
        <polyline id="Fill-180" fill="#5D2D1D" points="633.574 798.267 566.849 731.542 633.574 664.816 633.574 798.267"></polyline>
        <polyline id="Fill-181" fill="#DF4E55" points="633.49 664.816 700.215 731.542 633.49 798.267 633.49 664.816"></polyline>
        <polyline id="Fill-182" fill="#5D2D1D" points="66.683 664.816 133.408 731.542 66.683 798.267 66.683 664.816"></polyline>
        <polyline id="Fill-183" fill="#DF4E55" points="216.762 914.962 283.446 981.645 216.762 1048.33 216.762 914.962"></polyline>
        <polyline id="Fill-184" fill="#DF4E55" points="483.495 1048.33 416.812 981.645 483.495 914.962 483.495 1048.33"></polyline>
        <polyline id="Fill-185" fill="#DF4E55" points="133.45 598.259 66.725 664.984 133.45 731.709 200.175 664.984 133.45 598.259"></polyline>
        <g id="Group-189" transform="translate(0.000000, 531.000000)">
            <mask id="mask-14" fill="white">
                <use xlink:href="#path-13"></use>
            </mask>
            <g id="Clip-187"></g>
            <polyline id="Fill-186" fill="#F2E5CA" mask="url(#mask-14)" points="200.092 0.513 66.641 0.513 66.725 0.597 66.725 133.984 133.45 67.259 133.398 67.207 200.092 0.513"></polyline>
            <polyline id="Fill-188" fill="#F2E5CA" mask="url(#mask-14)" points="0.042 67.133 66.767 133.858 0.042 200.583 0.042 67.133"></polyline>
        </g>
        <polyline id="Fill-190" fill="#F2E5CA" points="633.616 531.513 500.166 531.513 566.86 598.207 566.807 598.259 633.532 664.984 633.532 531.597 633.616 531.513"></polyline>
        <polyline id="Fill-191" fill="#F2E5CA" points="700.257 731.583 633.532 664.858 700.257 598.133 700.257 731.583"></polyline>
        <polyline id="Fill-192" fill="#DF4E55" points="633.574 664.984 566.849 598.259 500.124 664.984 566.849 731.709 633.574 664.984"></polyline>
        <polyline id="Fill-193" fill="#DF4E55" points="333.458 531.534 400.183 598.259 333.458 664.984 333.458 531.534"></polyline>
        <polyline id="Fill-194" fill="#DF4E55" points="366.841 664.984 300.116 598.259 366.841 531.534 366.841 664.984"></polyline>
        <polyline id="Fill-195" fill="#DF4E55" points="333.416 931.549 400.141 998.274 333.416 1065 333.416 931.549"></polyline>
        <polyline id="Fill-196" fill="#DF4E55" points="366.799 1065 300.074 998.274 366.799 931.549 366.799 1065"></polyline>
        <polyline id="Fill-197" fill="#00B1B5" points="416.812 715.081 350.087 648.355 350.087 648.313 283.362 715.039 350.087 781.764 350.087 781.806 416.812 715.081"></polyline>
        <polyline id="Fill-198" fill="#00B1B5" points="350.129 915.004 283.404 848.279 283.404 848.237 216.678 914.962 283.404 981.687 283.404 981.729 350.129 915.004"></polyline>
        <polyline id="Fill-199" fill="#00B1B5" points="483.579 915.004 416.854 848.279 416.854 848.237 350.129 914.962 416.854 981.687 416.854 981.729 483.579 915.004"></polyline>
        <polyline id="Fill-200" fill="#00B1B5" points="550.136 915.004 550.136 914.962 483.411 981.687 550.136 1048.41 550.136 1048.45"></polyline>
        <polyline id="Fill-201" fill="#00B1B5" points="150.037 1048.41 150.037 1048.45 216.762 981.729 150.037 915.004 150.037 914.962"></polyline>
        <polyline id="Fill-202" fill="#00B1B5" points="366.799 598.369 350.087 581.656 350.087 581.646 333.374 598.359 350.087 615.071 350.087 615.082 366.799 598.369"></polyline>
        <polyline id="Fill-203" fill="#00B1B5" points="366.799 798.403 350.087 781.69 350.087 781.68 333.374 798.393 350.087 815.105 350.087 815.116 366.799 798.403"></polyline>
        <polyline id="Fill-204" fill="#5D2D1D" points="375.127 856.67 350.087 831.629 350.087 831.614 325.046 856.654 350.087 881.694 350.087 881.71 375.127 856.67"></polyline>
        <polyline id="Fill-205" fill="#00B1B5" points="333.458 665.068 266.733 598.343 266.733 598.301 200.008 665.026 266.733 731.751 266.733 731.793 333.458 665.068"></polyline>
        <path d="M350.129,722.539 C359.802,722.539 359.802,707.539 350.129,707.539 C340.456,707.539 340.456,722.539 350.129,722.539" id="Fill-206" fill="#5D2D1D"></path>
        <path d="M416.812,822.563 C426.485,822.563 426.485,807.563 416.812,807.563 C407.139,807.563 407.139,822.563 416.812,822.563" id="Fill-207" fill="#00B1B5"></path>
        <path d="M283.446,822.563 C293.119,822.563 293.119,807.563 283.446,807.563 C273.772,807.563 273.772,822.563 283.446,822.563" id="Fill-208" fill="#00B1B5"></path>
        <polyline id="Fill-209" fill="#DF4E55" points="516.858 881.81 450.133 815.084 516.858 748.359 516.858 881.81"></polyline>
        <polyline id="Fill-210" fill="#DF4E55" points="566.891 865.139 516.837 815.084 566.891 765.03 566.891 865.139"></polyline>
        <polyline id="Fill-211" fill="#DF4E55" points="608.526 856.803 566.807 815.084 608.526 773.365 608.526 856.803"></polyline>
        <polyline id="Fill-212" fill="#F2E5CA" points="300.116 915.004 283.404 898.291 283.404 898.281 266.691 914.994 283.404 931.706 283.404 931.717 300.116 915.004"></polyline>
        <polyline id="Fill-213" fill="#F2E5CA" points="433.483 915.004 416.77 898.291 416.77 898.281 400.057 914.994 416.77 931.706 416.77 931.717 433.483 915.004"></polyline>
        <polyline id="Fill-214" fill="#5D2D1D" points="366.799 998.369 350.087 981.656 350.087 981.645 333.374 998.358 350.087 1015.07 350.087 1015.08 366.799 998.369"></polyline>
        <polyline id="Fill-215" fill="#DF4E55" points="583.541 948.325 550.178 914.962 550.178 1048.41 616.883 981.708 616.904 981.729 616.904 914.962 583.541 948.325"></polyline>
        <polyline id="Fill-216" fill="#DF4E55" points="116.738 948.304 83.375 914.941 83.375 981.666 83.354 981.687 150.079 1048.41 150.079 914.962 116.738 948.304"></polyline>
        <polyline id="Fill-217" fill="#DF4E55" points="666.874 798.267 600.149 731.542 666.874 664.816 666.874 798.267"></polyline>
        <polyline id="Fill-218" fill="#DF4E55" points="33.342 664.816 100.067 731.542 33.342 798.267 33.342 664.816"></polyline>
        <g id="Group-222" transform="translate(0.000000, 531.000000)">
            <mask id="mask-16" fill="white">
                <use xlink:href="#path-15"></use>
            </mask>
            <g id="Clip-220"></g>
            <polyline id="Fill-219" fill="#DF4E55" mask="url(#mask-16)" points="66.725 0.45 108.444 42.169 66.725 83.888 66.725 0.45"></polyline>
            <polyline id="Fill-221" fill="#DF4E55" mask="url(#mask-16)" points="0.042 67.869 0.042 1.186 66.725 1.186 0.042 67.869"></polyline>
        </g>
        <polyline id="Fill-223" fill="#DF4E55" points="633.532 532.186 700.215 532.186 700.215 598.869 633.532 532.186"></polyline>
        <polyline id="Fill-224" fill="#00B1B5" points="458.489 531.534 500.166 531.534 500.166 573.211 458.489 531.534"></polyline>
        <polyline id="Fill-225" fill="#00B1B5" points="416.812 531.534 458.489 531.534 458.489 573.211 416.812 531.534"></polyline>
        <polyline id="Fill-226" fill="#00B1B5" points="241.769 573.211 241.769 531.534 283.446 531.534 241.769 573.211"></polyline>
        <polyline id="Fill-227" fill="#00B1B5" points="200.092 573.211 200.092 531.534 241.769 531.534 200.092 573.211"></polyline>
        <polyline id="Fill-228" fill="#00B1B5" points="158.415 573.211 158.415 531.534 200.092 531.534 158.415 573.211"></polyline>
        <polyline id="Fill-229" fill="#00B1B5" points="116.738 531.534 158.415 531.534 158.415 573.211 116.738 531.534"></polyline>
        <polyline id="Fill-230" fill="#00B1B5" points="541.843 573.211 541.843 531.534 583.52 531.534 541.843 573.211"></polyline>
        <polyline id="Fill-231" fill="#00B1B5" points="500.166 531.534 541.843 531.534 541.843 573.211 500.166 531.534"></polyline>
        <polyline id="Fill-232" fill="#DF4E55" points="633.532 614.888 591.813 573.169 633.532 531.45 633.532 614.888"></polyline>
        <g id="Group-236" transform="translate(0.000000, 1014.000000)">
            <mask id="mask-18" fill="white">
                <use xlink:href="#path-17"></use>
            </mask>
            <g id="Clip-234"></g>
            <polyline id="Fill-233" fill="#DF4E55" mask="url(#mask-18)" points="700.215 0.99 700.215 51 650.203 51 700.215 0.99"></polyline>
            <polyline id="Fill-235" fill="#DF4E55" mask="url(#mask-18)" points="50.054 51 0.042 51 0.042 0.99 50.054 51"></polyline>
        </g>
        <polyline id="Fill-237" fill="#5D2D1D" points="1366.66 533.999 1254.13 421.472 1204.1 471.505 1183.28 450.687 1183.28 492.322 1141.6 533.999 1366.66 533.999"></polyline>
        <polyline id="Fill-238" fill="#5D2D1D" points="833.194 433.975 733.169 533.999 933.219 533.999 833.194 433.975"></polyline>
        <polyline id="Fill-239" fill="#5D2D1D" points="916.59 450.687 883.269 484.008 916.59 517.329 916.59 450.687"></polyline>
        <polyline id="Fill-240" fill="#5D2D1D" points="699.828 200.5 766.553 267.225 699.828 333.95 699.828 200.5"></polyline>
        <polyline id="Fill-241" fill="#DF4E55" points="699.828 267.267 766.553 333.992 699.828 400.717 699.828 267.267"></polyline>
        <polyline id="Fill-242" fill="#F2E5CA" points="916.548 383.92 849.865 317.237 849.823 317.195 849.823 317.153 849.802 317.174 783.14 250.512 783.14 250.47 716.414 317.195 783.098 383.878 783.14 383.92 783.14 383.962 783.161 383.941 849.823 450.603 849.823 450.645 916.548 383.92"></polyline>
        <polyline id="Fill-243" fill="#5D2D1D" points="833.194 367.375 833.194 400.717 849.865 384.046 849.886 384.067 849.865 384.088 916.59 450.813 916.59 317.363 883.206 350.747 883.206 350.705 883.248 350.663 883.206 350.621 883.206 283.937 849.865 317.279 833.194 300.608 833.194 333.95"></polyline>
        <polyline id="Fill-244" fill="#DF4E55" points="1266.63 67.259 1199.91 0.534 1199.91 42.211 1158.23 0.534 1158.23 42.169 1116.04 0.569 1116.04 0.543 1116.01 0.543 1116 0.534 1116 0.543 1066.58 0.507 1116 50.546 1116 133.984 1158.23 92.349 1158.23 133.984 1199.91 92.307 1199.91 133.984 1266.63 67.259"></polyline>
        <polyline id="Fill-245" fill="#F2E5CA" points="899.835 533.958 983.231 450.562 1066.63 533.958 899.835 533.958"></polyline>
        <polyline id="Fill-246" fill="#F2E5CA" points="1033.16 533.958 1116.56 450.562 1199.95 533.958 1033.16 533.958"></polyline>
        <polyline id="Fill-247" fill="#DF4E55" points="983.231 0.534 983.231 0.576 941.596 42.211 941.596 0.534 899.877 42.253 899.877 0.534 833.152 67.259 899.877 133.984 899.877 92.265 941.596 133.984 941.596 92.307 983.273 133.984 983.273 50.504 1033.24 0.534 983.231 0.534"></polyline>
        <polyline id="Fill-248" fill="#00B1B5" points="766.553 133.9 699.828 67.175 766.553 0.45 766.553 133.9"></polyline>
        <polyline id="Fill-249" fill="#5D2D1D" points="1400.04 334.034 1333.32 267.309 1400.04 200.583 1400.04 334.034"></polyline>
        <polyline id="Fill-250" fill="#DF4E55" points="1400.04 400.717 1333.32 333.992 1400.04 267.267 1400.04 400.717"></polyline>
        <polyline id="Fill-251" fill="#00B1B5" points="1333.32 0.534 1400.04 67.259 1333.32 133.984 1333.32 0.534"></polyline>
        <polyline id="Fill-252" fill="#F2E5CA" points="1066.67 0.492 1049.96 17.205 1033.24 0.492 1066.67 0.492"></polyline>
        <polyline id="Fill-253" fill="#5D2D1D" points="1266.63 67.301 1199.91 134.026 1133.18 67.301 1266.63 67.301"></polyline>
        <polyline id="Fill-254" fill="#5D2D1D" points="966.644 67.301 899.919 134.026 833.194 67.301 966.644 67.301"></polyline>
        <polyline id="Fill-255" fill="#F2E5CA" points="966.56 167.41 899.835 100.685 899.835 100.643 833.11 167.368 899.835 234.093 899.835 234.135 966.56 167.41"></polyline>
        <polyline id="Fill-256" fill="#F2E5CA" points="916.548 250.68 849.823 183.955 849.823 183.913 783.098 250.638 849.823 317.363 849.823 317.405 916.548 250.68"></polyline>
        <polyline id="Fill-257" fill="#F2E5CA" points="1316.65 250.68 1249.92 183.955 1249.92 183.913 1183.2 250.638 1249.92 317.363 1249.92 317.405 1316.65 250.68"></polyline>
        <polyline id="Fill-258" fill="#F2E5CA" points="1266.72 167.41 1199.99 100.685 1199.99 100.643 1133.27 167.368 1199.99 234.093 1199.99 234.135 1266.72 167.41"></polyline>
        <polyline id="Fill-259" fill="#F2E5CA" points="1249.92 317.153 1183.2 383.878 1249.92 450.603 1249.92 450.645 1316.65 383.92 1249.92 317.195 1249.92 317.153"></polyline>
        <polyline id="Fill-260" fill="#F2E5CA" points="1383.41 317.237 1316.69 250.512 1316.69 250.47 1249.96 317.195 1316.69 383.92 1316.69 383.962 1383.41 317.237"></polyline>
        <polyline id="Fill-261" fill="#F2E5CA" points="1116.6 317.363 1049.87 250.638 1049.87 250.596 983.147 317.321 1049.87 384.046 1049.87 384.088 1116.6 317.363"></polyline>
        <polyline id="Fill-262" fill="#F2E5CA" points="1033.29 133.984 966.56 67.259 1033.29 0.534 1033.29 133.984"></polyline>
        <polyline id="Fill-263" fill="#F2E5CA" points="1066.59 0.618 1133.31 67.343 1066.59 134.068 1066.59 0.618"></polyline>
        <polyline id="Fill-264" fill="#F2E5CA" points="1049.91 383.962 1116.64 450.687 1049.91 517.413 1049.91 383.962"></polyline>
        <polyline id="Fill-265" fill="#F2E5CA" points="1049.91 517.329 983.189 450.604 1049.91 383.878 1049.91 517.329"></polyline>
        <polyline id="Fill-266" fill="#F2E5CA" points="1050 250.486 983.273 317.211 916.548 250.486 1050 250.486"></polyline>
        <polyline id="Fill-267" fill="#F2E5CA" points="749.861 450.645 699.828 400.612 749.861 350.579 749.861 450.645"></polyline>
        <polyline id="Fill-268" fill="#F2E5CA" points="783.203 484.029 733.169 433.996 783.203 383.962 783.203 484.029"></polyline>
        <polyline id="Fill-269" fill="#F2E5CA" points="1349.99 350.621 1400 400.633 1349.99 450.645 1349.99 350.621"></polyline>
        <polyline id="Fill-270" fill="#F2E5CA" points="1316.65 383.962 1366.66 433.975 1316.65 483.987 1316.65 383.962"></polyline>
        <polyline id="Fill-271" fill="#5D2D1D" points="983.273 184.039 966.602 200.709 949.932 184.039 883.206 250.764 1050 250.764 983.273 184.039"></polyline>
        <polyline id="Fill-272" fill="#F2E5CA" points="1183.28 250.486 1116.56 317.211 1049.83 250.486 1183.28 250.486"></polyline>
        <polyline id="Fill-273" fill="#5D2D1D" points="1149.98 184.039 1133.27 200.751 1116.56 184.039 1049.83 250.764 1216.71 250.764 1149.98 184.039"></polyline>
        <polyline id="Fill-274" fill="#DF4E55" points="1183.28 384.172 1116.56 317.447 1183.28 250.722 1183.28 384.172"></polyline>
        <polyline id="Fill-275" fill="#DF4E55" points="916.548 250.722 983.273 317.447 916.548 384.172 916.548 250.722"></polyline>
        <polyline id="Fill-276" fill="#5D2D1D" points="1266.68 333.908 1266.63 333.866 1266.63 300.608 1250.01 317.237 1216.62 283.854 1216.62 350.621 1216.58 350.663 1183.28 317.363 1183.28 450.813 1250.01 384.088 1266.63 400.717 1266.63 333.95 1266.68 333.908"></polyline>
        <polyline id="Fill-277" fill="#5D2D1D" points="949.89 350.705 883.164 283.979 949.89 217.254 949.89 350.705"></polyline>
        <polyline id="Fill-278" fill="#00B1B5" points="1199.95 134.068 1133.23 67.343 1133.23 67.301 1066.5 134.026 1133.23 200.751 1133.23 200.793 1199.95 134.068"></polyline>
        <polyline id="Fill-279" fill="#5D2D1D" points="1149.9 217.254 1216.62 283.979 1149.9 350.705 1149.9 217.254"></polyline>
        <polyline id="Fill-280" fill="#DF4E55" points="883.206 217.38 949.932 284.105 883.206 350.831 883.206 217.38"></polyline>
        <polyline id="Fill-281" fill="#DF4E55" points="833.152 234.051 883.206 284.105 833.152 334.16 833.152 234.051"></polyline>
        <polyline id="Fill-282" fill="#DF4E55" points="791.475 242.386 833.194 284.105 791.475 325.824 791.475 242.386"></polyline>
        <polyline id="Fill-283" fill="#F2E5CA" points="1233.31 533.979 1283.31 483.987 1333.3 533.979 1233.31 533.979"></polyline>
        <polyline id="Fill-284" fill="#F2E5CA" points="766.532 533.979 816.523 483.987 866.515 533.979 766.532 533.979"></polyline>
        <polyline id="Fill-285" fill="#00B1B5" points="783.143 484.006 741.486 525.664 699.828 484.006 783.143 484.006"></polyline>
        <polyline id="Fill-286" fill="#00B1B5" points="1399.96 484.006 1358.31 525.664 1316.65 484.006 1399.96 484.006"></polyline>
        <polyline id="Fill-287" fill="#5D2D1D" points="1316.67 483.987 1400 483.987 1358.33 442.321 1316.67 483.987"></polyline>
        <polyline id="Fill-288" fill="#5D2D1D" points="1358.39 442.289 1400.04 483.945 1400.04 400.633 1358.39 442.289"></polyline>
        <polyline id="Fill-289" fill="#5D2D1D" points="783.182 483.987 699.828 400.633 699.828 484.082 699.923 483.987 783.182 483.987"></polyline>
        <polyline id="Fill-290" fill="#DF4E55" points="1350.03 417.388 1316.65 384.004 1350.03 350.621 1350.03 417.388"></polyline>
        <polyline id="Fill-291" fill="#DF4E55" points="1316.69 517.413 1283.31 484.029 1316.69 450.645 1316.69 517.413"></polyline>
        <polyline id="Fill-292" fill="#DF4E55" points="749.84 350.621 783.224 384.004 749.84 417.388 749.84 350.621"></polyline>
        <polyline id="Fill-293" fill="#DF4E55" points="783.161 450.645 816.544 484.029 783.161 517.413 783.161 450.645"></polyline>
        <polyline id="Fill-294" fill="#DF4E55" points="766.511 267.267 699.786 200.542 766.511 133.816 766.511 267.267"></polyline>
        <polyline id="Fill-295" fill="#5D2D1D" points="1333.36 267.267 1266.63 200.542 1333.36 133.816 1333.36 267.267"></polyline>
        <polyline id="Fill-296" fill="#DF4E55" points="1333.28 133.816 1400 200.542 1333.28 267.267 1333.28 133.816"></polyline>
        <polyline id="Fill-297" fill="#5D2D1D" points="766.469 133.816 833.194 200.542 766.469 267.267 766.469 133.816"></polyline>
        <polyline id="Fill-298" fill="#DF4E55" points="916.548 383.962 983.231 450.645 916.548 517.329 916.548 383.962"></polyline>
        <polyline id="Fill-299" fill="#DF4E55" points="1183.28 517.329 1116.6 450.645 1183.28 383.962 1183.28 517.329"></polyline>
        <polyline id="Fill-300" fill="#DF4E55" points="833.236 67.259 766.511 133.984 833.236 200.709 899.961 133.984 833.236 67.259"></polyline>
        <polyline id="Fill-301" fill="#F2E5CA" points="899.877 0.513 766.427 0.513 766.511 0.597 766.511 133.984 833.236 67.259 833.184 67.207 899.877 0.513"></polyline>
        <polyline id="Fill-302" fill="#F2E5CA" points="699.828 67.133 766.553 133.858 699.828 200.583 699.828 67.133"></polyline>
        <polyline id="Fill-303" fill="#F2E5CA" points="1333.4 0.513 1199.95 0.513 1266.65 67.207 1266.59 67.259 1333.32 133.984 1333.32 0.597 1333.4 0.513"></polyline>
        <polyline id="Fill-304" fill="#F2E5CA" points="1400.04 200.583 1333.32 133.858 1400.04 67.133 1400.04 200.583"></polyline>
        <polyline id="Fill-305" fill="#DF4E55" points="1333.36 133.984 1266.63 67.259 1199.91 133.984 1266.63 200.709 1333.36 133.984"></polyline>
        <polyline id="Fill-306" fill="#DF4E55" points="1033.24 0.534 1099.97 67.259 1033.24 133.984 1033.24 0.534"></polyline>
        <polyline id="Fill-307" fill="#DF4E55" points="1066.63 133.984 999.902 67.259 1066.63 0.534 1066.63 133.984"></polyline>
        <polyline id="Fill-308" fill="#DF4E55" points="1033.2 400.549 1099.93 467.274 1033.2 533.999 1033.2 400.549"></polyline>
        <polyline id="Fill-309" fill="#DF4E55" points="1066.59 533.999 999.86 467.274 1066.59 400.549 1066.59 533.999"></polyline>
        <polyline id="Fill-310" fill="#00B1B5" points="1116.6 184.081 1049.87 117.355 1049.87 117.313 983.147 184.039 1049.87 250.764 1049.87 250.806 1116.6 184.081"></polyline>
        <polyline id="Fill-311" fill="#00B1B5" points="1049.91 384.004 983.189 317.279 983.189 317.237 916.464 383.962 983.189 450.687 983.189 450.729 1049.91 384.004"></polyline>
        <polyline id="Fill-312" fill="#00B1B5" points="1183.36 384.004 1116.64 317.279 1116.64 317.237 1049.91 383.962 1116.64 450.687 1116.64 450.729 1183.36 384.004"></polyline>
        <polyline id="Fill-313" fill="#00B1B5" points="1249.92 384.004 1249.92 383.962 1183.2 450.687 1249.92 517.413 1249.92 517.455"></polyline>
        <polyline id="Fill-314" fill="#00B1B5" points="849.823 517.413 849.823 517.455 916.548 450.729 849.823 384.004 849.823 383.962"></polyline>
        <polyline id="Fill-315" fill="#00B1B5" points="1066.59 67.369 1049.87 50.656 1049.87 50.646 1033.16 67.359 1049.87 84.071 1049.87 84.082 1066.59 67.369"></polyline>
        <polyline id="Fill-316" fill="#00B1B5" points="1066.59 267.403 1049.87 250.69 1049.87 250.68 1033.16 267.393 1049.87 284.105 1049.87 284.116 1066.59 267.403"></polyline>
        <polyline id="Fill-317" fill="#5D2D1D" points="1074.91 325.67 1049.87 300.629 1049.87 300.614 1024.83 325.654 1049.87 350.694 1049.87 350.71 1074.91 325.67"></polyline>
        <polyline id="Fill-318" fill="#00B1B5" points="1033.24 134.068 966.518 67.343 966.518 67.301 899.793 134.026 966.518 200.751 966.518 200.793 1033.24 134.068"></polyline>
        <path d="M1049.91,191.539 C1059.59,191.539 1059.59,176.539 1049.91,176.539 C1040.24,176.539 1040.24,191.539 1049.91,191.539" id="Fill-319" fill="#5D2D1D"></path>
        <path d="M1116.6,291.563 C1126.27,291.563 1126.27,276.563 1116.6,276.563 C1106.92,276.563 1106.92,291.563 1116.6,291.563" id="Fill-320" fill="#00B1B5"></path>
        <path d="M983.231,291.563 C992.904,291.563 992.904,276.563 983.231,276.563 C973.558,276.563 973.558,291.563 983.231,291.563" id="Fill-321" fill="#00B1B5"></path>
        <polyline id="Fill-322" fill="#DF4E55" points="1216.64 350.81 1149.92 284.084 1216.64 217.359 1216.64 350.81"></polyline>
        <polyline id="Fill-323" fill="#DF4E55" points="1266.68 334.139 1216.62 284.084 1266.68 234.03 1266.68 334.139"></polyline>
        <polyline id="Fill-324" fill="#DF4E55" points="1308.31 325.803 1266.59 284.084 1308.31 242.365 1308.31 325.803"></polyline>
        <polyline id="Fill-325" fill="#F2E5CA" points="999.902 384.004 983.189 367.291 983.189 367.281 966.477 383.994 983.189 400.706 983.189 400.717 999.902 384.004"></polyline>
        <polyline id="Fill-326" fill="#F2E5CA" points="1133.27 384.004 1116.56 367.291 1116.56 367.281 1099.84 383.994 1116.56 400.706 1116.56 400.717 1133.27 384.004"></polyline>
        <polyline id="Fill-327" fill="#5D2D1D" points="1066.59 467.369 1049.87 450.656 1049.87 450.645 1033.16 467.358 1049.87 484.071 1049.87 484.082 1066.59 467.369"></polyline>
        <polyline id="Fill-328" fill="#DF4E55" points="1283.33 417.325 1249.96 383.962 1249.96 517.413 1316.67 450.708 1316.69 450.729 1316.69 383.962 1283.33 417.325"></polyline>
        <polyline id="Fill-329" fill="#DF4E55" points="816.523 417.304 783.161 383.941 783.161 450.666 783.14 450.687 849.865 517.413 849.865 383.962 816.523 417.304"></polyline>
        <polyline id="Fill-330" fill="#DF4E55" points="1366.66 267.267 1299.93 200.542 1366.66 133.816 1366.66 267.267"></polyline>
        <polyline id="Fill-331" fill="#DF4E55" points="733.127 133.816 799.852 200.542 733.127 267.267 733.127 133.816"></polyline>
        <polyline id="Fill-332" fill="#DF4E55" points="766.511 0.45 808.23 42.169 766.511 83.888 766.511 0.45"></polyline>
        <polyline id="Fill-333" fill="#DF4E55" points="699.828 67.869 699.828 1.186 766.511 1.186 699.828 67.869"></polyline>
        <polyline id="Fill-334" fill="#DF4E55" points="1333.32 1.186 1400 1.186 1400 67.869 1333.32 1.186"></polyline>
        <polyline id="Fill-335" fill="#00B1B5" points="1158.27 0.534 1199.95 0.534 1199.95 42.211 1158.27 0.534"></polyline>
        <polyline id="Fill-336" fill="#00B1B5" points="1116.6 0.534 1158.27 0.534 1158.27 42.211 1116.6 0.534"></polyline>
        <polyline id="Fill-337" fill="#00B1B5" points="941.554 42.211 941.554 0.534 983.231 0.534 941.554 42.211"></polyline>
        <polyline id="Fill-338" fill="#00B1B5" points="899.877 42.211 899.877 0.534 941.554 0.534 899.877 42.211"></polyline>
        <polyline id="Fill-339" fill="#00B1B5" points="858.2 42.211 858.2 0.534 899.877 0.534 858.2 42.211"></polyline>
        <polyline id="Fill-340" fill="#00B1B5" points="816.523 0.534 858.2 0.534 858.2 42.211 816.523 0.534"></polyline>
        <polyline id="Fill-341" fill="#00B1B5" points="1241.63 42.211 1241.63 0.534 1283.31 0.534 1241.63 42.211"></polyline>
        <polyline id="Fill-342" fill="#00B1B5" points="1199.95 0.534 1241.63 0.534 1241.63 42.211 1199.95 0.534"></polyline>
        <polyline id="Fill-343" fill="#DF4E55" points="1333.32 83.888 1291.6 42.169 1333.32 0.45 1333.32 83.888"></polyline>
        <polyline id="Fill-344" fill="#DF4E55" points="1400 483.987 1400 533.999 1349.99 533.999 1400 483.987"></polyline>
        <polyline id="Fill-345" fill="#DF4E55" points="749.84 533.999 699.828 533.999 699.828 483.987 749.84 533.999"></polyline>
        <polyline id="Fill-346" fill="#5D2D1D" points="666.874 533.999 554.346 421.472 504.313 471.505 483.495 450.687 483.495 492.322 441.818 533.999 666.874 533.999"></polyline>
        <polyline id="Fill-347" fill="#5D2D1D" points="133.408 433.975 33.383 533.999 233.433 533.999 133.408 433.975"></polyline>
        <g id="Group-352" transform="translate(0.000000, 200.000000)">
            <mask id="mask-20" fill="white">
                <use xlink:href="#path-19"></use>
            </mask>
            <g id="Clip-349"></g>
            <polyline id="Fill-348" fill="#5D2D1D" mask="url(#mask-20)" points="216.804 250.687 183.484 284.008 216.804 317.329 216.804 250.687"></polyline>
            <polyline id="Fill-350" fill="#5D2D1D" mask="url(#mask-20)" points="0.042 0.5 66.767 67.225 0.042 133.95 0.042 0.5"></polyline>
            <polyline id="Fill-351" fill="#DF4E55" mask="url(#mask-20)" points="0.042 67.267 66.767 133.992 0.042 200.717 0.042 67.267"></polyline>
        </g>
        <polyline id="Fill-353" fill="#F2E5CA" points="216.762 383.92 150.037 317.195 150.037 317.153 150.016 317.174 83.354 250.512 83.354 250.47 16.629 317.195 83.312 383.878 83.354 383.92 83.354 383.962 83.375 383.941 150.037 450.603 150.037 450.645 216.762 383.92"></polyline>
        <polyline id="Fill-354" fill="#5D2D1D" points="133.408 367.375 133.408 400.717 150.079 384.046 150.1 384.067 150.079 384.088 216.804 450.813 216.804 317.363 183.421 350.747 183.421 350.705 183.463 350.663 183.421 350.621 183.421 283.937 150.079 317.279 133.408 300.608 133.408 333.95"></polyline>
        <polyline id="Fill-355" fill="#DF4E55" points="566.849 67.259 500.124 0.534 500.124 42.211 458.447 0.534 458.447 42.169 416.25 0.569 416.25 0.543 416.223 0.543 416.214 0.534 416.214 0.543 366.794 0.507 416.214 50.546 416.214 133.984 458.447 92.349 458.447 133.984 500.124 92.307 500.124 133.984 566.849 67.259"></polyline>
        <polyline id="Fill-356" fill="#F2E5CA" points="200.05 533.958 283.446 450.562 366.841 533.958 200.05 533.958"></polyline>
        <polyline id="Fill-357" fill="#F2E5CA" points="333.374 533.958 416.77 450.562 500.166 533.958 333.374 533.958"></polyline>
        <g id="Group-361">
            <mask id="mask-22" fill="white">
                <use xlink:href="#path-21"></use>
            </mask>
            <g id="Clip-359"></g>
            <polyline id="Fill-358" fill="#DF4E55" mask="url(#mask-22)" points="283.445 0.534 283.445 0.576 241.81 42.211 241.81 0.534 200.092 42.253 200.092 0.534 133.366 67.259 200.092 133.984 200.092 92.265 241.81 133.984 241.81 92.307 283.487 133.984 283.487 50.504 333.458 0.534 283.445 0.534"></polyline>
            <polyline id="Fill-360" fill="#00B1B5" mask="url(#mask-22)" points="66.767 133.9 0.042 67.175 66.767 0.45 66.767 133.9"></polyline>
        </g>
        <polyline id="Fill-362" fill="#5D2D1D" points="700.257 334.034 633.532 267.309 700.257 200.583 700.257 334.034"></polyline>
        <polyline id="Fill-363" fill="#DF4E55" points="700.257 400.717 633.532 333.992 700.257 267.267 700.257 400.717"></polyline>
        <polyline id="Fill-364" fill="#00B1B5" points="633.532 0.534 700.257 67.259 633.532 133.984 633.532 0.534"></polyline>
        <polyline id="Fill-365" fill="#F2E5CA" points="366.883 0.492 350.171 17.205 333.458 0.492 366.883 0.492"></polyline>
        <polyline id="Fill-366" fill="#5D2D1D" points="566.849 67.301 500.124 134.026 433.399 67.301 566.849 67.301"></polyline>
        <polyline id="Fill-367" fill="#5D2D1D" points="266.859 67.301 200.133 134.026 133.408 67.301 266.859 67.301"></polyline>
        <polyline id="Fill-368" fill="#F2E5CA" points="266.775 167.41 200.05 100.685 200.05 100.643 133.324 167.368 200.05 234.093 200.05 234.135 266.775 167.41"></polyline>
        <polyline id="Fill-369" fill="#F2E5CA" points="216.762 250.68 150.037 183.955 150.037 183.913 83.312 250.638 150.037 317.363 150.037 317.405 216.762 250.68"></polyline>
        <polyline id="Fill-370" fill="#F2E5CA" points="616.862 250.68 550.136 183.955 550.136 183.913 483.411 250.638 550.136 317.363 550.136 317.405 616.862 250.68"></polyline>
        <polyline id="Fill-371" fill="#F2E5CA" points="566.933 167.41 500.208 100.685 500.208 100.643 433.483 167.368 500.208 234.093 500.208 234.135 566.933 167.41"></polyline>
        <polyline id="Fill-372" fill="#F2E5CA" points="550.136 317.153 483.411 383.878 550.136 450.603 550.136 450.645 616.862 383.92 550.136 317.195 550.136 317.153"></polyline>
        <polyline id="Fill-373" fill="#F2E5CA" points="683.629 317.237 616.904 250.512 616.904 250.47 550.178 317.195 616.904 383.92 616.904 383.962 683.629 317.237"></polyline>
        <polyline id="Fill-374" fill="#F2E5CA" points="416.812 317.363 350.087 250.638 350.087 250.596 283.362 317.321 350.087 384.046 350.087 384.088 416.812 317.363"></polyline>
        <polyline id="Fill-375" fill="#F2E5CA" points="333.5 133.984 266.775 67.259 333.5 0.534 333.5 133.984"></polyline>
        <polyline id="Fill-376" fill="#F2E5CA" points="366.799 0.618 433.525 67.343 366.799 134.068 366.799 0.618"></polyline>
        <polyline id="Fill-377" fill="#F2E5CA" points="350.129 383.962 416.854 450.687 350.129 517.413 350.129 383.962"></polyline>
        <polyline id="Fill-378" fill="#F2E5CA" points="350.129 517.329 283.404 450.604 350.129 383.878 350.129 517.329"></polyline>
        <g id="Group-382" transform="translate(0.000000, 250.000000)">
            <mask id="mask-24" fill="white">
                <use xlink:href="#path-23"></use>
            </mask>
            <g id="Clip-380"></g>
            <polyline id="Fill-379" fill="#F2E5CA" mask="url(#mask-24)" points="350.213 0.486 283.487 67.211 216.762 0.486 350.213 0.486"></polyline>
            <polyline id="Fill-381" fill="#F2E5CA" mask="url(#mask-24)" points="50.075 200.645 0.042 150.612 50.075 100.579 50.075 200.645"></polyline>
        </g>
        <polyline id="Fill-383" fill="#F2E5CA" points="83.417 484.029 33.383 433.996 83.417 383.962 83.417 484.029"></polyline>
        <polyline id="Fill-384" fill="#F2E5CA" points="650.203 350.621 700.215 400.633 650.203 450.645 650.203 350.621"></polyline>
        <polyline id="Fill-385" fill="#F2E5CA" points="616.862 383.962 666.874 433.975 616.862 483.987 616.862 383.962"></polyline>
        <polyline id="Fill-386" fill="#5D2D1D" points="283.487 184.039 266.817 200.709 250.146 184.039 183.421 250.764 350.213 250.764 283.487 184.039"></polyline>
        <polyline id="Fill-387" fill="#F2E5CA" points="483.495 250.486 416.77 317.211 350.045 250.486 483.495 250.486"></polyline>
        <polyline id="Fill-388" fill="#5D2D1D" points="450.195 184.039 433.483 200.751 416.77 184.039 350.045 250.764 516.921 250.764 450.195 184.039"></polyline>
        <polyline id="Fill-389" fill="#DF4E55" points="483.495 384.172 416.77 317.447 483.495 250.722 483.495 384.172"></polyline>
        <polyline id="Fill-390" fill="#DF4E55" points="216.762 250.722 283.487 317.447 216.762 384.172 216.762 250.722"></polyline>
        <polyline id="Fill-391" fill="#5D2D1D" points="566.891 333.908 566.849 333.866 566.849 300.608 550.22 317.237 516.837 283.854 516.837 350.621 516.795 350.663 483.495 317.363 483.495 450.813 550.22 384.088 566.849 400.717 566.849 333.95 566.891 333.908"></polyline>
        <polyline id="Fill-392" fill="#5D2D1D" points="250.104 350.705 183.379 283.979 250.104 217.254 250.104 350.705"></polyline>
        <polyline id="Fill-393" fill="#00B1B5" points="500.166 134.068 433.441 67.343 433.441 67.301 366.716 134.026 433.441 200.751 433.441 200.793 500.166 134.068"></polyline>
        <polyline id="Fill-394" fill="#5D2D1D" points="450.112 217.254 516.837 283.979 450.112 350.705 450.112 217.254"></polyline>
        <polyline id="Fill-395" fill="#DF4E55" points="183.421 217.38 250.146 284.105 183.421 350.831 183.421 217.38"></polyline>
        <polyline id="Fill-396" fill="#DF4E55" points="133.366 234.051 183.421 284.105 133.366 334.16 133.366 234.051"></polyline>
        <polyline id="Fill-397" fill="#DF4E55" points="91.689 242.386 133.408 284.105 91.689 325.824 91.689 242.386"></polyline>
        <polyline id="Fill-398" fill="#F2E5CA" points="533.529 533.979 583.52 483.987 633.511 533.979 533.529 533.979"></polyline>
        <g id="Group-402" transform="translate(0.000000, 483.000000)">
            <mask id="mask-26" fill="white">
                <use xlink:href="#path-25"></use>
            </mask>
            <g id="Clip-400"></g>
            <polyline id="Fill-399" fill="#F2E5CA" mask="url(#mask-26)" points="66.746 50.979 116.738 0.987 166.729 50.979 66.746 50.979"></polyline>
            <polyline id="Fill-401" fill="#00B1B5" mask="url(#mask-26)" points="83.358 1.006 41.7 42.664 0.042 1.006 83.358 1.006"></polyline>
        </g>
        <polyline id="Fill-403" fill="#00B1B5" points="700.177 484.006 658.519 525.664 616.862 484.006 700.177 484.006"></polyline>
        <polyline id="Fill-404" fill="#5D2D1D" points="616.883 483.987 700.216 483.987 658.549 442.321 616.883 483.987"></polyline>
        <g id="Group-408" transform="translate(0.000000, 400.000000)">
            <mask id="mask-28" fill="white">
                <use xlink:href="#path-27"></use>
            </mask>
            <g id="Clip-406"></g>
            <polyline id="Fill-405" fill="#5D2D1D" mask="url(#mask-28)" points="658.601 42.289 700.258 83.945 700.258 0.633 658.601 42.289"></polyline>
            <polyline id="Fill-407" fill="#5D2D1D" mask="url(#mask-28)" points="83.396 83.987 0.042 0.633 0.042 84.082 0.137 83.987 83.396 83.987"></polyline>
        </g>
        <polyline id="Fill-409" fill="#DF4E55" points="650.245 417.388 616.862 384.004 650.245 350.621 650.245 417.388"></polyline>
        <polyline id="Fill-410" fill="#DF4E55" points="616.903 517.413 583.52 484.029 616.903 450.645 616.903 517.413"></polyline>
        <polyline id="Fill-411" fill="#DF4E55" points="50.054 350.621 83.438 384.004 50.054 417.388 50.054 350.621"></polyline>
        <g id="Group-415" transform="translate(0.000000, 133.000000)">
            <mask id="mask-30" fill="white">
                <use xlink:href="#path-29"></use>
            </mask>
            <g id="Clip-413"></g>
            <polyline id="Fill-412" fill="#DF4E55" mask="url(#mask-30)" points="83.375 317.645 116.759 351.029 83.375 384.413 83.375 317.645"></polyline>
            <polyline id="Fill-414" fill="#DF4E55" mask="url(#mask-30)" points="66.725 134.267 0 67.542 66.725 0.816 66.725 134.267"></polyline>
        </g>
        <polyline id="Fill-416" fill="#5D2D1D" points="633.574 267.267 566.849 200.542 633.574 133.816 633.574 267.267"></polyline>
        <polyline id="Fill-417" fill="#DF4E55" points="633.49 133.816 700.215 200.542 633.49 267.267 633.49 133.816"></polyline>
        <polyline id="Fill-418" fill="#5D2D1D" points="66.683 133.816 133.408 200.542 66.683 267.267 66.683 133.816"></polyline>
        <polyline id="Fill-419" fill="#DF4E55" points="216.762 383.962 283.446 450.645 216.762 517.329 216.762 383.962"></polyline>
        <polyline id="Fill-420" fill="#DF4E55" points="483.495 517.329 416.812 450.645 483.495 383.962 483.495 517.329"></polyline>
        <polyline id="Fill-421" fill="#DF4E55" points="133.45 67.259 66.725 133.984 133.45 200.709 200.175 133.984 133.45 67.259"></polyline>
        <g id="Group-425">
            <mask id="mask-32" fill="white">
                <use xlink:href="#path-31"></use>
            </mask>
            <g id="Clip-423"></g>
            <polyline id="Fill-422" fill="#F2E5CA" mask="url(#mask-32)" points="200.092 0.513 66.641 0.513 66.725 0.597 66.725 133.984 133.45 67.259 133.398 67.207 200.092 0.513"></polyline>
            <polyline id="Fill-424" fill="#F2E5CA" mask="url(#mask-32)" points="0.042 67.133 66.767 133.858 0.042 200.583 0.042 67.133"></polyline>
        </g>
        <polyline id="Fill-426" fill="#F2E5CA" points="633.616 0.513 500.166 0.513 566.86 67.207 566.807 67.259 633.532 133.984 633.532 0.597 633.616 0.513"></polyline>
        <polyline id="Fill-427" fill="#F2E5CA" points="700.257 200.583 633.532 133.858 700.257 67.133 700.257 200.583"></polyline>
        <polyline id="Fill-428" fill="#DF4E55" points="633.574 133.984 566.849 67.259 500.124 133.984 566.849 200.709 633.574 133.984"></polyline>
        <polyline id="Fill-429" fill="#DF4E55" points="333.458 0.534 400.183 67.259 333.458 133.984 333.458 0.534"></polyline>
        <polyline id="Fill-430" fill="#DF4E55" points="366.841 133.984 300.116 67.259 366.841 0.534 366.841 133.984"></polyline>
        <polyline id="Fill-431" fill="#DF4E55" points="333.416 400.549 400.141 467.274 333.416 533.999 333.416 400.549"></polyline>
        <polyline id="Fill-432" fill="#DF4E55" points="366.799 533.999 300.074 467.274 366.799 400.549 366.799 533.999"></polyline>
        <polyline id="Fill-433" fill="#00B1B5" points="416.812 184.081 350.087 117.355 350.087 117.313 283.362 184.039 350.087 250.764 350.087 250.806 416.812 184.081"></polyline>
        <polyline id="Fill-434" fill="#00B1B5" points="350.129 384.004 283.404 317.279 283.404 317.237 216.678 383.962 283.404 450.687 283.404 450.729 350.129 384.004"></polyline>
        <polyline id="Fill-435" fill="#00B1B5" points="483.579 384.004 416.854 317.279 416.854 317.237 350.129 383.962 416.854 450.687 416.854 450.729 483.579 384.004"></polyline>
        <polyline id="Fill-436" fill="#00B1B5" points="550.136 384.004 550.136 383.962 483.411 450.687 550.136 517.413 550.136 517.455"></polyline>
        <polyline id="Fill-437" fill="#00B1B5" points="150.037 517.413 150.037 517.455 216.762 450.729 150.037 384.004 150.037 383.962"></polyline>
        <polyline id="Fill-438" fill="#00B1B5" points="366.799 67.369 350.087 50.656 350.087 50.646 333.374 67.359 350.087 84.071 350.087 84.082 366.799 67.369"></polyline>
        <polyline id="Fill-439" fill="#00B1B5" points="366.799 267.403 350.087 250.69 350.087 250.68 333.374 267.393 350.087 284.105 350.087 284.116 366.799 267.403"></polyline>
        <polyline id="Fill-440" fill="#5D2D1D" points="375.127 325.67 350.087 300.629 350.087 300.614 325.046 325.654 350.087 350.694 350.087 350.71 375.127 325.67"></polyline>
        <polyline id="Fill-441" fill="#00B1B5" points="333.458 134.068 266.733 67.343 266.733 67.301 200.008 134.026 266.733 200.751 266.733 200.793 333.458 134.068"></polyline>
        <path d="M350.129,191.539 C359.802,191.539 359.802,176.539 350.129,176.539 C340.456,176.539 340.456,191.539 350.129,191.539" id="Fill-442" fill="#5D2D1D"></path>
        <path d="M416.812,291.563 C426.485,291.563 426.485,276.563 416.812,276.563 C407.139,276.563 407.139,291.563 416.812,291.563" id="Fill-443" fill="#00B1B5"></path>
        <path d="M283.446,291.563 C293.119,291.563 293.119,276.563 283.446,276.563 C273.772,276.563 273.772,291.563 283.446,291.563" id="Fill-444" fill="#00B1B5"></path>
        <polyline id="Fill-445" fill="#DF4E55" points="516.858 350.81 450.133 284.084 516.858 217.359 516.858 350.81"></polyline>
        <polyline id="Fill-446" fill="#DF4E55" points="566.891 334.139 516.837 284.084 566.891 234.03 566.891 334.139"></polyline>
        <polyline id="Fill-447" fill="#DF4E55" points="608.526 325.803 566.807 284.084 608.526 242.365 608.526 325.803"></polyline>
        <polyline id="Fill-448" fill="#F2E5CA" points="300.116 384.004 283.404 367.291 283.404 367.281 266.691 383.994 283.404 400.706 283.404 400.717 300.116 384.004"></polyline>
        <polyline id="Fill-449" fill="#F2E5CA" points="433.483 384.004 416.77 367.291 416.77 367.281 400.057 383.994 416.77 400.706 416.77 400.717 433.483 384.004"></polyline>
        <polyline id="Fill-450" fill="#5D2D1D" points="366.799 467.369 350.087 450.656 350.087 450.645 333.374 467.358 350.087 484.071 350.087 484.082 366.799 467.369"></polyline>
        <polyline id="Fill-451" fill="#DF4E55" points="583.541 417.325 550.178 383.962 550.178 517.413 616.883 450.708 616.904 450.729 616.904 383.962 583.541 417.325"></polyline>
        <polyline id="Fill-452" fill="#DF4E55" points="116.738 417.304 83.375 383.941 83.375 450.666 83.354 450.687 150.079 517.413 150.079 383.962 116.738 417.304"></polyline>
        <polyline id="Fill-453" fill="#DF4E55" points="666.874 267.267 600.149 200.542 666.874 133.816 666.874 267.267"></polyline>
        <polyline id="Fill-454" fill="#DF4E55" points="33.342 133.816 100.067 200.542 33.342 267.267 33.342 133.816"></polyline>
        <g id="Group-458">
            <mask id="mask-34" fill="white">
                <use xlink:href="#path-33"></use>
            </mask>
            <g id="Clip-456"></g>
            <polyline id="Fill-455" fill="#DF4E55" mask="url(#mask-34)" points="66.725 0.45 108.444 42.169 66.725 83.888 66.725 0.45"></polyline>
            <polyline id="Fill-457" fill="#DF4E55" mask="url(#mask-34)" points="0.042 67.869 0.042 1.186 66.725 1.186 0.042 67.869"></polyline>
        </g>
        <polyline id="Fill-459" fill="#DF4E55" points="633.532 1.186 700.215 1.186 700.215 67.869 633.532 1.186"></polyline>
        <polyline id="Fill-460" fill="#00B1B5" points="458.489 0.534 500.166 0.534 500.166 42.211 458.489 0.534"></polyline>
        <polyline id="Fill-461" fill="#00B1B5" points="416.812 0.534 458.489 0.534 458.489 42.211 416.812 0.534"></polyline>
        <polyline id="Fill-462" fill="#00B1B5" points="241.769 42.211 241.769 0.534 283.446 0.534 241.769 42.211"></polyline>
        <polyline id="Fill-463" fill="#00B1B5" points="200.092 42.211 200.092 0.534 241.769 0.534 200.092 42.211"></polyline>
        <polyline id="Fill-464" fill="#00B1B5" points="158.415 42.211 158.415 0.534 200.092 0.534 158.415 42.211"></polyline>
        <polyline id="Fill-465" fill="#00B1B5" points="116.738 0.534 158.415 0.534 158.415 42.211 116.738 0.534"></polyline>
        <polyline id="Fill-466" fill="#00B1B5" points="541.843 42.211 541.843 0.534 583.52 0.534 541.843 42.211"></polyline>
        <polyline id="Fill-467" fill="#00B1B5" points="500.166 0.534 541.843 0.534 541.843 42.211 500.166 0.534"></polyline>
        <polyline id="Fill-468" fill="#DF4E55" points="633.532 83.888 591.813 42.169 633.532 0.45 633.532 83.888"></polyline>
        <g id="Group-472" transform="translate(0.000000, 483.000000)">
            <mask id="mask-36" fill="white">
                <use xlink:href="#path-35"></use>
            </mask>
            <g id="Clip-470"></g>
            <polyline id="Fill-469" fill="#DF4E55" mask="url(#mask-36)" points="700.215 0.987 700.215 50.999 650.203 50.999 700.215 0.987"></polyline>
            <polyline id="Fill-471" fill="#DF4E55" mask="url(#mask-36)" points="50.054 50.999 0.042 50.999 0.042 0.987 50.054 50.999"></polyline>
        </g>
    </g>
</svg>
