<?xml version="1.0" encoding="utf-8"?>
<!-- Generator: Adobe Illustrator 19.2.1, SVG Export Plug-In . SVG Version: 6.00 Build 0)  -->
<svg version="1.1" id="Layer_1" xmlns="http://www.w3.org/2000/svg" xmlns:xlink="http://www.w3.org/1999/xlink" x="0px" y="0px"
	 viewBox="0 0 512 512" style="enable-background:new 0 0 512 512;" xml:space="preserve">
<style type="text/css">
	.st0{clip-path:url(#SVGID_2_);fill:#FAFAFA;}
</style>
<g>
	<defs>
		<rect id="SVGID_1_" x="113.9" y="114.9" width="287.3" height="287.3"/>
	</defs>
	<clipPath id="SVGID_2_">
		<use xlink:href="#SVGID_1_"  style="overflow:visible;"/>
	</clipPath>
	<path class="st0" d="M257.6,140.8c38.4,0,42.9,0.1,58.1,0.8c14,0.6,21.6,3,26.7,4.9c6.7,2.6,11.5,5.7,16.5,10.7
		c5,5,8.1,9.8,10.7,16.5c2,5.1,4.3,12.7,4.9,26.7c0.7,15.2,0.8,19.7,0.8,58.1c0,38.4-0.1,42.9-0.8,58.1c-0.6,14-3,21.6-4.9,26.7
		c-2.6,6.7-5.7,11.5-10.7,16.5c-5,5-9.8,8.1-16.5,10.7c-5.1,2-12.7,4.3-26.7,4.9c-15.1,0.7-19.7,0.8-58.1,0.8
		c-38.4,0-42.9-0.1-58.1-0.8c-14-0.6-21.6-3-26.7-4.9c-6.7-2.6-11.5-5.7-16.5-10.7c-5-5-8.1-9.8-10.7-16.5c-2-5.1-4.3-12.7-4.9-26.7
		c-0.7-15.1-0.8-19.7-0.8-58.1c0-38.4,0.1-42.9,0.8-58.1c0.6-14,3-21.6,4.9-26.7c2.6-6.7,5.7-11.5,10.7-16.5c5-5,9.8-8.1,16.5-10.7
		c5.1-2,12.7-4.3,26.7-4.9C214.7,140.9,219.2,140.8,257.6,140.8 M257.6,114.9c-39,0-43.9,0.2-59.2,0.9c-15.3,0.7-25.7,3.1-34.9,6.7
		C154,126.1,146,131,138,139c-8,8-12.9,16-16.6,25.4c-3.6,9.1-6,19.6-6.7,34.9c-0.7,15.3-0.9,20.2-0.9,59.2c0,39,0.2,43.9,0.9,59.2
		c0.7,15.3,3.1,25.7,6.7,34.9c3.7,9.4,8.6,17.5,16.6,25.4c8,8,16,12.9,25.4,16.6c9.1,3.6,19.6,6,34.9,6.7
		c15.3,0.7,20.2,0.9,59.2,0.9c39,0,43.9-0.2,59.2-0.9c15.3-0.7,25.7-3.1,34.9-6.7c9.4-3.7,17.5-8.6,25.4-16.6s12.9-16,16.6-25.4
		c3.6-9.1,6-19.6,6.7-34.9c0.7-15.3,0.9-20.2,0.9-59.2c0-39-0.2-43.9-0.9-59.2c-0.7-15.3-3.1-25.7-6.7-34.9
		c-3.7-9.4-8.6-17.5-16.6-25.4c-8-8-16-12.9-25.4-16.6c-9.1-3.6-19.6-6-34.9-6.7C301.5,115.1,296.6,114.9,257.6,114.9"/>
	<path class="st0" d="M257.6,184.8c-40.7,0-73.8,33-73.8,73.8c0,40.7,33,73.8,73.8,73.8c40.7,0,73.8-33,73.8-73.8
		C331.3,217.8,298.3,184.8,257.6,184.8 M257.6,306.5c-26.4,0-47.9-21.4-47.9-47.9s21.4-47.9,47.9-47.9c26.4,0,47.9,21.4,47.9,47.9
		S284,306.5,257.6,306.5"/>
	<path class="st0" d="M351.5,181.9c0,9.5-7.7,17.2-17.2,17.2c-9.5,0-17.2-7.7-17.2-17.2c0-9.5,7.7-17.2,17.2-17.2
		C343.8,164.6,351.5,172.4,351.5,181.9"/>
</g>
</svg>
